**ABCDEFGHIJKLMNOPQRSTUVWXYZabcdefghijklmnopqrstuvwxyz**************************
**PARASOLID !"#$%&'()*+,-./:;<=>?@[\]^_`{|}~0123456789**************************
**PART1;
MC=AMD64;
MC_MODEL=Intel64 Family 6 Model 154 Stepping 3, GenuineIntel;
MC_ID=unknown;
OS=Windows_NT;
OS_RELEASE=unknown;
FRU=Parasolid Version 35.1, build 210,  4-20-2023;
APPL=SOLIDWORKS 2024-2023282;
SITE=;
USER=unknown;
FORMAT=text;
GUISE=transmit;
KEY=ser;
FILE=ser.x_t;
DATE=Mon Jun  3 20:44:04 2024;
**PART2;
SCH=SCH_3501210_35102;
USFLD_SIZE=0;
**PART3;
**END_OF_HEADER*****************************************************************
T51 : TRANSMIT FILE created by modeller version 350121023 SCH_3501210_35102_1300
6231 0 12 36 CCCI7 lattice222 0 CCCI4 mesh1006 0 I8 polyline1008 0 CCCCCCCDI5 ow
ner1040 0 CCCI16 boundary_lattice222 0 CCCI13 boundary_mesh1006 0 I17 boundary_p
olyline1008 0 CCCA16 index_map_offset0 0 1 dA9 index_map82 0 A17 node_id_index_m
ap82 0 A20 schema_embedding_map82 0 A5 child12 0 A14 lowest_node_id0 0 1 dA16 me
sh_offset_data206 0 Z1 1528 2 3 0 0 0 0 0 0 0 1e3 1e-8 0 4 0 1 0 1 1 5 0 6 7 8 0
 0 9 10 11 0 0 0 0 0 0 0 81 255 2 2 1458 12 1 13 0 0 0 0 14 70 11 CI9 list_type0
 0 1 uI10 notransmit0 0 1 lCCCDCCDI12 finger_index0 0 1 dI12 finger_block1012 0
 CZ3 0 4 T1 0 0 11 20 1 15 15 13 255 5 99 0 1 0 16 0 0 17 0 51 255 6 1132 0 18 1
9 0 0 +-.02 .02 .005 0 0 -1 .01 -1 0 0 31 255 7 1041 0 10 20 0 0 --.02 .02 .01 0
 0 1 1 0 0 .01 29 255 8 1005 0 11 21 0 -.02 .03 .01 19 9 CCCCCCI5 frame230 0 CA5
 owner12 0 Z9 33 0 1 17 0 22 0 V0 16 255 10 1033 0 ?23 0 24 7 0 0 1 18 255 11 10
03 0 23 0 25 8 ?1 17 255 23 0 26 27 28 11 29 10 0 30 +18 25 1000 0 31 11 32 21 ?
1 17 31 0 33 34 35 25 36 24 0 37 -18 32 985 0 36 25 38 39 ?1 29 21 1002 0 25 39
 8 .02 .03 .01 29 39 987 0 32 40 21 .03 .02 .01 29 40 984 0 38 41 39 .03 -.02 .0
1 18 38 982 0 42 32 43 40 ?1 29 41 957 0 43 44 40 .03 .02 .005 18 43 955 0 45 38
 46 41 ?1 29 44 954 0 46 47 41 .03 -.02 .005 18 46 952 0 48 43 49 44 ?1 29 47 95
1 0 49 50 44 -.02 .03 .005 18 49 949 0 51 46 52 47 ?1 29 50 948 0 52 53 47 .02 .
03 .005 18 52 946 0 54 49 55 50 ?1 29 53 933 0 55 56 50 -.03 -.02 .005 18 55 931
 0 57 52 58 53 ?1 29 56 930 0 58 59 53 -.03 .02 .005 18 58 928 0 60 55 61 56 ?1
 29 59 927 0 61 62 56 -.03 -.02 .01 18 61 925 0 63 58 64 59 ?1 29 62 924 0 64 65
 59 -.03 .02 .01 18 64 922 0 29 61 66 62 ?1 29 65 909 0 66 67 62 .02 -.03 .005 1
8 66 907 0 68 64 69 65 ?1 29 67 906 0 69 70 65 -.02 -.03 .005 18 69 904 0 71 66
 72 67 ?1 29 70 903 0 72 73 67 .02 -.03 .01 18 72 901 0 74 69 75 70 ?1 29 73 900
 0 75 76 70 -.02 -.03 .01 18 75 898 0 77 72 78 73 ?1 29 76 723 0 78 79 73 -.015
 -.015 .005 18 78 721 0 80 75 81 76 ?1 29 79 614 0 81 82 76 -.015 .005 .005 18 8
1 612 0 83 78 84 79 ?1 29 82 505 0 84 85 79 .015 -.005 .005 18 84 503 0 86 81 87
 82 ?1 29 85 396 0 87 88 82 .005 .005 .005 18 87 394 0 89 84 90 85 ?1 29 88 161
 0 90 91 85 -.04 -.04 .01 18 90 159 0 92 87 93 88 ?1 29 91 157 0 93 94 88 -.04 .
04 .01 18 93 155 0 95 90 96 91 ?1 29 94 153 0 96 97 91 .04 .04 .01 18 96 151 0 9
8 93 99 94 ?1 29 97 150 0 99 100 94 .04 -.04 .01 18 99 148 0 101 96 102 97 ?1 29
 100 75 0 102 103 97 .05 -.05 0 18 102 66 0 104 99 105 100 ?1 29 103 76 0 105 10
6 100 -.05 -.05 0 18 105 67 0 107 102 108 103 ?1 29 106 77 0 108 109 103 -.05 .0
5 0 18 108 68 0 110 105 111 106 ?1 29 109 78 0 111 112 106 .05 .05 0 18 111 69 0
 113 108 114 109 ?1 29 112 491 0 115 116 109 .015 .005 .005 18 115 444 0 117 118
 119 112 ?1 29 116 493 0 119 120 112 .005 .015 .005 18 119 441 0 121 115 122 116
 ?1 29 120 494 0 122 123 116 .015 .015 .005 18 122 448 0 124 119 125 120 ?1 29 1
23 495 0 114 126 120 .015 .005 .013 18 114 447 0 127 111 128 123 ?1 29 126 496 0
 128 129 123 .005 .005 .013 18 128 446 0 130 114 131 126 ?1 29 129 497 0 131 132
 126 .005 .015 .013 18 131 445 0 133 128 118 129 ?1 29 132 498 0 118 134 129 .01
5 .015 .013 18 118 442 0 135 131 115 132 ?1 29 134 600 0 136 137 132 .005 -.015
 .013 18 136 551 0 138 139 140 134 ?1 29 137 601 0 140 141 134 .015 -.015 .013 1
8 140 554 0 142 136 143 137 ?1 29 141 602 0 143 144 137 .015 -.005 .013 18 143 5
55 0 145 140 146 141 ?1 29 144 603 0 146 147 141 .005 -.005 .013 18 146 556 0 14
8 143 149 144 ?1 29 147 604 0 125 150 144 .005 -.015 .005 18 125 557 0 151 122 1
52 147 ?1 29 150 605 0 152 153 147 .015 -.015 .005 18 152 550 0 154 125 139 150
 ?1 29 153 607 0 139 155 150 .005 -.005 .005 18 139 553 0 156 152 136 153 ?1 29
 155 709 0 157 158 153 -.005 .015 .013 18 157 660 0 159 160 161 155 ?1 29 158 71
0 0 161 162 155 -.015 .015 .013 18 161 663 0 163 157 164 158 ?1 29 162 711 0 164
 165 158 -.015 .005 .013 18 164 664 0 166 161 167 162 ?1 29 165 712 0 167 168 16
2 -.005 .005 .013 18 167 665 0 169 164 170 165 ?1 29 168 713 0 149 171 165 -.005
 .015 .005 18 149 666 0 172 146 173 168 ?1 29 171 714 0 173 174 168 -.015 .015 .
005 18 173 659 0 175 149 160 171 ?1 29 174 716 0 160 176 171 -.005 .005 .005 18
 160 662 0 177 173 157 174 ?1 29 176 818 0 178 179 174 -.005 -.005 .013 18 178 7
69 0 180 181 182 176 ?1 29 179 819 0 182 183 176 -.015 -.005 .013 18 182 772 0 1
84 178 185 179 ?1 29 183 820 0 185 186 179 -.015 -.015 .013 18 185 773 0 187 182
 188 183 ?1 29 186 821 0 188 189 183 -.005 -.015 .013 18 188 774 0 190 185 0 186
 ?1 29 189 822 0 170 191 186 -.005 -.005 .005 18 170 775 0 192 167 193 189 ?1 29
 191 823 0 193 194 189 -.015 -.005 .005 18 193 768 0 195 170 181 191 ?1 29 194 8
25 0 181 0 191 -.005 -.015 .005 18 181 771 0 196 193 178 194 ?1 17 196 0 197 198
 80 181 199 200 0 201 +15 255 197 791 0 196 202 0 17 198 0 197 203 196 188 201 2
04 0 205 -17 80 0 197 196 203 78 206 207 0 208 +17 199 0 209 210 211 78 196 200
 0 0 -16 200 752 0 ?196 212 213 214 0 0 1 17 201 0 215 216 205 181 198 204 0 211
 +15 215 779 0 216 217 0 17 216 0 215 218 201 170 211 219 0 220 +17 205 0 215 20
1 218 188 221 213 0 0 -16 204 743 0 ?201 222 207 223 0 0 1 17 211 0 209 199 220
 181 216 219 0 0 -15 209 719 0 220 16 0 17 220 0 209 211 210 170 195 224 0 0 -16
 219 740 0 ?216 225 224 226 0 0 1 16 225 638 0 ?172 227 219 228 0 0 1 16 224 744
 0 ?195 219 212 229 0 0 1 30 255 226 810 0 219 229 230 0 +-.005 -.015 .005 17347
23475976805e-31 1 0 30 229 811 0 224 231 226 0 +-.005 -.005 .005 -1 867361737988
404e-30 0 30 230 809 0 222 226 232 0 +-.005 -.015 .013 1 -1040834085586084e-30 0
 16 222 765 0 ?190 233 204 230 0 0 1 30 232 808 0 233 230 234 0 +-.015 -.015 .01
3 -3469446951953615e-31 -1 0 16 233 762 0 ?187 235 222 232 0 0 1 30 234 807 0 23
5 232 236 0 +-.005 -.005 .013 -1 867361737988404e-30 0 16 235 759 0 ?184 213 233
 234 0 0 1 30 236 806 0 213 234 228 0 +-.005 -.015 .013 1734723475976805e-31 1 0
 16 213 756 0 ?221 200 235 236 0 0 1 30 228 708 0 225 236 237 0 +-.005 .015 .013
 0 0 -1 30 237 707 0 227 228 238 0 +-.015 .015 .013 0 0 -1 16 227 642 0 ?239 240
 225 237 0 0 1 30 238 706 0 240 237 241 0 +-.015 .005 .013 0 0 -1 16 240 646 0 ?
83 242 227 238 0 0 1 30 241 705 0 242 238 243 0 +-.005 .005 .013 0 0 -1 16 242 6
34 0 ?244 245 240 241 0 0 1 30 243 704 0 246 241 247 0 +-.005 .005 .005 1 0 0 16
 246 643 0 ?177 248 249 243 0 0 1 30 247 703 0 248 243 250 0 +-.015 .015 .005 0
 -1 0 16 248 639 0 ?251 252 246 247 0 0 1 30 250 702 0 252 247 253 0 +-.005 .015
 .005 -1 -3469446951953615e-31 0 16 252 635 0 ?175 254 248 250 0 0 1 30 253 701
 0 254 250 255 0 +-.005 .015 .005 3469446951953615e-31 1 0 16 254 631 0 ?256 257
 252 253 0 0 1 30 255 700 0 245 253 258 0 +-.005 .005 .013 1 0 0 16 245 656 0 ?1
69 259 242 255 0 0 1 30 258 699 0 259 255 260 0 +-.015 .015 .013 0 -1 0 16 259 6
53 0 ?166 261 245 258 0 0 1 30 260 698 0 261 258 262 0 +-.005 .015 .013 -1 -3469
446951953615e-31 0 16 261 650 0 ?163 249 259 260 0 0 1 30 262 697 0 249 260 263
 0 +-.005 .015 .013 3469446951953615e-31 1 0 16 249 647 0 ?264 246 261 262 0 0 1
 30 263 599 0 257 262 265 0 +.005 -.015 .013 0 0 -1 16 257 529 0 ?151 266 254 26
3 0 0 1 30 265 598 0 266 263 267 0 +.015 -.015 .013 0 0 -1 16 266 533 0 ?268 269
 257 265 0 0 1 30 267 597 0 269 265 270 0 +.015 -.005 .013 0 0 -1 16 269 537 0 ?
86 271 266 267 0 0 1 30 270 596 0 271 267 272 0 +.005 -.005 .013 0 0 -1 16 271 5
25 0 ?273 274 269 270 0 0 1 30 272 595 0 275 270 276 0 +.005 -.005 .005 -1 -8673
61737988404e-30 0 16 275 534 0 ?156 277 278 272 0 0 1 30 276 594 0 277 272 279 0
 +.015 -.015 .005 -693889390390723e-30 1 0 16 277 530 0 ?280 281 275 276 0 0 1 3
0 279 593 0 281 276 282 0 +.005 -.015 .005 1 1040834085586084e-30 0 16 281 526 0
 ?154 283 277 279 0 0 1 30 282 592 0 283 279 284 0 +.005 -.015 .005 346944695195
3615e-31 -1 0 16 283 522 0 ?285 286 281 282 0 0 1 30 284 591 0 274 282 287 0 +.0
05 -.005 .013 -1 -867361737988404e-30 0 16 274 547 0 ?148 288 271 284 0 0 1 30 2
87 590 0 288 284 289 0 +.015 -.015 .013 -693889390390723e-30 1 0 16 288 544 0 ?1
45 290 274 287 0 0 1 30 289 589 0 290 287 291 0 +.005 -.015 .013 1 1040834085586
084e-30 0 16 290 541 0 ?142 278 288 289 0 0 1 30 291 588 0 278 289 292 0 +.005 -
.015 .013 3469446951953615e-31 -1 0 16 278 538 0 ?293 275 290 291 0 0 1 30 292 4
90 0 294 291 295 0 +.015 .015 .013 -3469446951953615e-31 1 0 16 294 429 0 ?296 2
97 298 292 0 0 1 30 295 489 0 297 292 299 0 +.005 .015 .013 -1 0 0 16 297 432 0
 ?133 300 294 295 0 0 1 30 299 488 0 300 295 301 0 +.005 .015 .013 5204170427930
42e-30 -1 0 16 300 435 0 ?130 302 297 299 0 0 1 30 301 487 0 302 299 303 0 +.005
 .005 .013 1 0 0 16 302 438 0 ?127 304 300 301 0 0 1 30 303 486 0 286 301 305 0
 +.015 .015 .005 -3469446951953615e-31 1 0 16 286 413 0 ?306 307 283 303 0 0 1 3
0 305 485 0 307 303 308 0 +.005 .015 .005 -1 0 0 16 307 417 0 ?121 309 286 305 0
 0 1 30 308 484 0 309 305 310 0 +.005 .015 .005 520417042793042e-30 -1 0 16 309
 421 0 ?311 298 307 308 0 0 1 30 310 483 0 298 308 312 0 +.005 .005 .005 1 0 0 1
6 298 425 0 ?117 294 309 310 0 0 1 30 312 482 0 304 310 313 0 +.015 .005 .013 0
 0 -1 16 304 416 0 ?314 315 302 312 0 0 1 30 313 481 0 315 312 316 0 +.005 .005
 .013 0 0 -1 16 315 428 0 ?89 317 304 313 0 0 1 30 316 480 0 317 313 318 0 +.005
 .015 .013 0 0 -1 16 317 424 0 ?319 320 315 316 0 0 1 30 318 479 0 320 316 321 0
 +.015 .015 .013 0 0 -1 16 320 420 0 ?124 322 317 318 0 0 1 30 321 353 0 323 318
 324 0 +.03 .03 .005 -1 0 0 16 323 947 0 ?325 326 327 321 0 0 1 30 324 352 0 326
 321 328 0 +-.03 .03 .005 115648231731787e-30 -1 0 16 326 929 0 ?329 330 323 324
 0 0 1 30 328 351 0 330 324 331 0 +-.03 -.03 .005 1 0 0 16 330 905 0 ?332 333 32
6 328 0 0 1 30 331 350 0 333 328 334 0 +.03 -.03 .005 -1734723475976805e-31 1 0
 16 333 953 0 ?335 336 330 331 0 0 1 30 334 349 0 322 331 337 0 +.03 .03 .01 -1
 0 0 16 322 1001 0 ?30 338 320 334 0 0 1 30 337 348 0 338 334 339 0 +-.03 .03 .0
1 115648231731787e-30 -1 0 16 338 923 0 ?340 341 322 337 0 0 1 30 339 347 0 341
 337 342 0 +-.03 -.03 .01 1 0 0 16 341 899 0 ?343 327 338 339 0 0 1 30 342 346 0
 327 339 344 0 +.03 -.03 .01 -1734723475976805e-31 1 0 16 327 983 0 ?345 323 341
 342 0 0 1 30 344 74 0 346 342 347 0 +.05 .05 0 -1387778780781446e-31 1 0 16 346
 62 0 ?348 349 350 344 0 0 1 30 347 73 0 349 344 351 0 +-.05 .05 0 -1 0 0 16 349
 58 0 ?352 353 346 347 0 0 1 30 351 72 0 353 347 354 0 +-.05 .05 0 6938893903907
23e-31 -1 0 16 353 54 0 ?355 356 349 351 0 0 1 30 354 71 0 356 351 357 0 +-.05 -
.05 0 1 0 0 16 356 50 0 ?358 359 353 354 0 0 1 30 357 154 0 359 354 360 0 +.04 .
05 .01 -1387778780781446e-31 1 0 16 359 152 0 ?98 361 356 357 0 0 1 30 360 158 0
 361 357 362 0 +-.05 .04 .01 -1 0 0 16 361 156 0 ?95 363 359 360 0 0 1 30 362 16
2 0 363 360 364 0 +-.04 -.05 .01 693889390390723e-31 -1 0 16 363 160 0 ?92 365 3
61 362 0 0 1 30 364 165 0 365 362 366 0 +.05 -.04 .01 1 0 0 16 365 163 0 ?367 36
8 363 364 0 0 1 30 366 219 0 336 364 369 0 -.0266666666666667 -.0266666666666667
 .02333333333333335 .577350269189625 -.577350269189625 -.577350269189627 16 336
 199 0 ?101 370 333 366 0 0 1 30 369 218 0 370 366 371 0 --.0266666666666667 -.0
266666666666667 .02333333333333335 .577350269189625 .577350269189625 .5773502691
89627 16 370 197 0 ?107 372 336 369 0 0 1 30 371 217 0 372 369 373 0 +.026666666
6666667 .0266666666666667 .02333333333333335 -.577350269189625 -.577350269189625
 .577350269189627 16 372 194 0 ?374 350 370 371 0 0 1 30 373 216 0 350 371 375 0
 --.0266666666666667 .0266666666666667 .02333333333333335 .577350269189625 -.577
350269189625 .577350269189627 16 350 191 0 ?376 346 372 373 0 0 1 30 375 912 0 3
68 373 377 0 -.02 -.03 .005 0 0 1 16 368 910 0 ?68 378 365 375 0 0 1 30 377 918
 0 378 375 379 0 +-.02 -.03 .01 0 0 1 16 378 916 0 ?380 381 368 377 0 0 1 30 379
 936 0 381 377 382 0 +-.03 .02 .01 0 0 1 16 381 934 0 ?383 384 378 379 0 0 1 30
 382 942 0 384 379 385 0 --.03 -.02 .005 0 0 1 16 384 940 0 ?57 386 381 382 0 0
 1 31 385 960 0 386 382 387 0 +-.02 .02 .005 0 0 1 1 0 0 .01 16 386 958 0 ?60 38
8 384 385 0 0 1 31 387 966 0 388 385 389 0 +.02 .02 .005 0 0 1 1 0 0 .01 16 388
 964 0 ?54 390 386 387 0 0 1 31 389 972 0 390 387 391 0 +.02 -.02 .005 0 0 1 1 0
 0 .01 16 390 970 0 ?48 392 388 389 0 0 1 31 391 978 0 392 389 393 0 +-.02 -.02
 .005 0 0 1 1 0 0 .01 16 392 976 0 ?71 394 390 391 0 0 1 30 393 990 0 394 391 39
5 0 -.03 .02 .005 0 0 1 16 394 988 0 ?45 396 392 393 0 0 1 30 395 996 0 396 393
 397 0 +.03 -.02 .01 0 0 1 16 396 994 0 ?398 399 394 395 0 0 1 30 397 1008 0 399
 395 400 0 --.02 .03 .005 0 0 1 16 399 1006 0 ?51 401 396 397 0 0 1 30 400 1014
 0 401 397 402 0 +.02 .03 .01 0 0 1 16 401 1012 0 ?37 403 399 400 0 0 1 31 402 1
038 0 403 400 404 0 --.02 -.02 .01 0 0 1 1 0 0 .01 16 403 1018 0 ?63 405 401 402
 0 0 1 31 404 1039 0 405 402 20 0 -.02 -.02 .01 0 0 1 1 0 0 .01 16 405 1023 0 ?7
4 24 403 404 0 0 1 31 20 1040 0 24 404 7 0 -.02 .02 .01 0 0 1 1 0 0 .01 16 24 10
28 0 ?36 10 405 20 0 0 1 17 36 0 26 406 27 32 31 24 0 345 +15 26 270 0 27 407 40
8 17 406 0 26 74 36 38 345 327 0 0 -17 27 0 26 36 23 25 30 322 0 0 -17 345 0 409
 45 398 32 406 327 0 35 +15 409 319 0 410 411 0 17 45 0 409 410 345 43 35 394 0
 335 +17 398 0 409 345 410 38 412 396 0 406 +17 35 0 33 31 413 32 45 394 0 0 -15
 33 1100 0 413 414 0 17 413 0 33 35 34 43 54 388 0 0 -17 34 0 33 413 31 52 37 40
1 0 0 -17 54 0 415 325 335 52 413 388 0 416 +15 415 330 0 329 16 417 17 325 0 41
5 60 54 49 416 323 0 418 +17 335 0 415 54 48 43 410 333 0 413 +17 416 0 419 37 5
1 52 325 323 0 34 -15 419 315 0 416 420 0 17 37 0 419 30 416 25 34 401 0 27 +17
 51 0 419 416 30 49 421 399 0 325 +17 30 0 419 51 37 11 27 322 0 421 +17 421 0 4
22 29 418 11 51 399 0 0 -15 422 1121 0 418 18 0 17 29 0 422 423 421 64 23 10 0 3
83 -17 418 0 422 421 423 49 60 386 0 0 -17 423 0 422 418 29 58 383 381 0 0 -17 6
0 0 415 329 325 58 418 386 0 424 +17 329 0 415 71 60 55 424 326 0 425 +17 424 0
 426 383 57 58 329 326 0 423 -15 426 327 0 340 427 0 17 383 0 426 340 424 64 423
 381 0 28 +17 57 0 426 424 340 55 428 384 0 329 +17 340 0 426 57 383 61 28 338 0
 428 +17 428 0 429 77 425 61 57 384 0 0 -15 429 1058 0 425 430 0 17 77 0 429 431
 428 75 63 403 0 380 -17 425 0 429 428 431 55 71 392 0 0 -17 431 0 429 425 77 69
 380 378 0 0 -17 71 0 415 332 329 69 425 392 0 432 +17 332 0 415 48 71 66 432 33
0 0 433 +17 432 0 434 380 68 69 332 330 0 431 -15 434 323 0 432 435 0 17 380 0 4
34 343 432 75 431 378 0 436 +17 68 0 434 432 343 66 437 368 0 332 +17 343 0 434
 68 380 72 436 341 0 437 +17 437 0 438 42 433 72 68 368 0 0 -15 438 1079 0 433 4
39 0 17 42 0 438 412 437 38 74 405 0 398 -17 433 0 438 437 412 66 48 390 0 0 -17
 412 0 438 433 42 46 398 396 0 0 -17 48 0 415 335 332 46 433 390 0 410 +17 410 0
 409 398 45 46 335 333 0 412 -17 74 0 26 436 406 72 42 405 0 343 +17 436 0 26 63
 74 75 343 341 0 0 -17 63 0 26 28 436 61 77 403 0 340 +17 28 0 26 23 63 64 340 3
38 0 0 -14 255 439 1078 440 ?414 430 438 5 441 -0 0 414 430 22 81 1 440 1460 442
 439 443 0 0 444 445 14 414 1099 444 ?18 439 33 5 19 -0 0 18 439 22 14 430 1057
 446 ?439 447 429 5 448 -0 0 439 447 22 51 441 1090 0 439 448 19 0 +.02 -.02 .00
5 0 0 -1 .01 -1 0 0 13 22 34 0 0 0 0 0 0 9 16 14 16 736 449 ?407 0 415 5 450 +0
 0 407 0 22 81 1 449 1466 442 16 451 0 446 452 453 14 407 1 452 ?454 16 26 5 455
 +0 0 454 16 22 50 255 450 341 0 16 456 457 0 +0 0 .005 0 0 1 1 0 0 50 456 473 0
 458 459 450 0 +.015 .015 .013 -1 -3469446951953615e-31 0 3469446951953615e-31 -
1 0 50 457 339 0 411 450 460 0 +.03 -.03 .005 1 1734723475976805e-31 0 -17347234
75976805e-31 1 0 14 411 316 461 ?435 420 409 5 457 -0 0 435 420 22 50 460 338 0
 435 457 462 0 +-.03 -.03 .005 0 -1 0 0 0 -1 14 435 320 463 ?427 411 434 5 460 -
0 0 427 411 22 50 462 337 0 427 460 464 0 +-.03 .03 .005 -1 -115648231731787e-30
 0 115648231731787e-30 -1 0 14 427 324 465 ?458 435 426 5 462 -0 0 458 435 22 50
 464 336 0 420 462 455 0 +.03 .03 .005 0 1 0 0 0 1 14 420 312 466 ?411 467 419 5
 464 -0 0 411 467 22 50 455 3 0 407 464 468 0 +0 0 .01 0 0 1 1 0 0 50 468 70 0 4
54 455 469 0 +0 0 0 0 0 1 1 0 0 14 454 48 470 ?471 407 472 5 468 -0 0 471 407 22
 50 469 214 473 467 468 474 0 +0 -.04 .01 0 -.707106781186549 .707106781186547 -
1 0 0 81 2 473 215 475 469 0 0 476 0 477 478 14 467 184 479 ?420 480 481 5 469 +
0 0 420 480 22 50 474 212 476 480 469 482 0 +.04 555111512312579e-32 .01 .707106
781186549 981307786677361e-31 .707106781186547 1387778780781446e-31 -1 0 81 2 47
6 213 475 474 0 0 483 473 484 485 14 480 182 486 ?467 487 488 5 474 +0 0 467 487
 22 50 482 210 483 487 474 489 0 +-.04 -277555756156289e-32 .01 -.70710678118654
9 -49065389333868e-30 .707106781186547 -693889390390723e-31 1 0 81 2 483 211 475
 482 0 0 490 476 491 492 14 487 180 493 ?480 471 494 5 482 +0 0 480 471 22 50 48
9 208 490 471 482 448 0 +0 .04 .01 0 .707106781186549 .707106781186547 1 0 0 81
 2 490 209 475 489 0 0 0 483 495 496 14 471 178 497 ?487 454 498 5 489 +0 0 487
 454 22 51 448 1069 0 430 489 441 0 +-.02 -.02 .005 0 0 -1 .01 -1 0 0 81 1 497 1
486 442 471 499 0 493 500 501 15 498 179 0 502 471 0 17 502 0 498 352 503 111 37
4 372 0 348 -17 352 0 498 504 502 108 113 349 0 376 +17 503 0 498 502 504 96 95
 361 0 374 -17 374 0 488 505 348 96 502 372 0 0 +17 348 0 488 374 506 111 104 34
6 0 0 +15 488 183 0 374 480 0 17 506 0 488 348 505 102 101 336 0 0 -17 104 0 472
 507 113 102 348 346 0 358 -15 472 49 0 104 454 0 17 507 0 472 110 104 105 358 3
56 0 0 -17 113 0 472 104 110 111 352 349 0 502 -17 358 0 481 101 107 102 507 356
 0 506 +15 481 185 0 107 467 0 17 101 0 481 508 358 99 506 336 0 505 +17 107 0 4
81 358 508 105 509 370 0 355 +17 508 0 481 107 101 90 367 365 0 0 -17 509 0 494
 510 355 90 107 370 0 508 -17 355 0 494 509 376 105 110 353 0 507 +15 494 181 0
 376 487 0 17 376 0 494 355 510 108 504 350 0 0 +17 110 0 472 113 507 108 355 35
3 0 352 -17 510 0 494 376 509 93 92 363 0 0 -17 504 0 498 503 352 93 376 350 0 5
10 -17 92 0 408 367 95 90 510 363 0 509 +15 408 149 0 92 407 0 17 367 0 408 98 9
2 99 508 365 0 0 +17 95 0 408 92 98 93 503 361 0 504 +17 98 0 408 95 367 96 505
 359 0 503 +17 505 0 488 506 374 99 98 359 0 367 -80 7 CCCCCDI12 legal_owners0 1
6 1 lCZ1 442 511 512 9000 1 1 1 1 1 1 1 1 0 FFFFTFTFFFFFFFFF1 81 3 499 1485 513
 471 514 497 515 516 517 0 0 81 1 493 1484 442 487 515 0 486 497 518 81 1 500 14
88 442 458 516 0 497 519 520 82 255 1 501 -796262251 14 458 449 500 ?521 427 522
 5 456 -0 0 521 427 22 81 3 516 1487 513 458 523 500 499 524 525 0 0 81 1 519 14
90 442 521 524 0 500 526 527 82 1 520 17891484 14 521 453 519 ?528 458 529 5 459
 -0 0 528 458 22 81 3 524 1489 513 521 530 519 516 531 532 0 0 81 1 526 1492 442
 528 531 0 519 533 534 82 1 527 17629340 14 528 457 526 ?535 521 536 5 537 -0 0
 535 521 22 81 3 531 1491 513 528 538 526 524 539 540 0 0 81 1 533 1494 442 535
 539 0 526 541 542 82 1 534 17367196 14 535 461 533 ?543 528 544 5 545 -0 0 543
 528 22 81 3 539 1493 513 535 546 533 531 547 548 0 0 81 1 541 1496 442 543 547
 0 533 549 550 82 1 542 17105052 14 543 465 541 ?551 535 552 5 553 +0 0 551 535
 22 81 3 547 1495 513 543 554 541 539 555 556 0 0 81 1 549 1498 442 551 555 0 54
1 557 558 82 1 550 10551452 14 551 558 549 ?559 543 560 5 561 -0 0 559 543 22 81
 3 555 1497 513 551 562 549 547 563 564 0 0 81 1 557 1500 442 559 563 0 549 565
 566 82 1 558 29622428 14 559 562 557 ?567 551 568 5 569 -0 0 567 551 22 81 3 56
3 1499 513 559 570 557 555 571 572 0 0 81 1 565 1502 442 567 571 0 557 573 574 8
2 1 566 29360284 14 567 566 565 ?575 559 576 5 577 -0 0 575 559 22 81 3 571 1501
 513 567 578 565 563 579 580 0 0 81 1 573 1504 442 575 579 0 565 581 582 82 1 57
4 29098140 14 575 570 573 ?583 567 584 5 585 -0 0 583 567 22 81 3 579 1503 513 5
75 586 573 571 587 588 0 0 81 1 581 1506 442 583 587 0 573 589 590 82 1 582 2883
5996 14 583 574 581 ?591 575 592 5 593 -0 0 591 575 22 81 3 587 1505 513 583 594
 581 579 595 596 0 0 81 1 589 1508 442 591 595 0 581 597 598 82 1 590 22282396 1
4 591 667 589 ?599 583 600 5 601 -0 0 599 583 22 81 3 595 1507 513 591 602 589 5
87 603 604 0 0 81 1 597 1510 442 599 603 0 589 605 606 82 1 598 41287836 14 599
 671 597 ?607 591 608 5 609 -0 0 607 591 22 81 3 603 1509 513 599 610 597 595 61
1 612 0 0 81 1 605 1512 442 607 611 0 597 613 614 82 1 606 41025692 14 607 675 6
05 ?615 599 616 5 617 -0 0 615 599 22 81 3 611 1511 513 607 618 605 603 619 620
 0 0 81 1 613 1514 442 615 619 0 605 621 622 82 1 614 40763548 14 615 679 613 ?6
23 607 624 5 625 -0 0 623 607 22 81 3 619 1513 513 615 626 613 611 627 628 0 0 8
1 1 621 1516 442 623 627 0 613 629 630 82 1 622 40501404 14 623 683 621 ?217 615
 631 5 632 -0 0 217 615 22 81 3 627 1515 513 623 633 621 619 634 635 0 0 81 1 62
9 1518 442 217 634 0 621 636 637 82 1 630 33947804 14 217 776 629 ?638 623 215 5
 639 -0 0 638 623 22 81 3 634 1517 513 217 640 629 627 641 642 0 0 81 1 636 1520
 442 638 641 0 629 643 644 82 1 637 52953244 14 638 780 636 ?645 217 646 5 647 -
0 0 645 217 22 81 3 641 1519 513 638 648 636 634 649 650 0 0 81 1 643 1522 442 6
45 649 0 636 651 652 82 1 644 52691100 14 645 784 643 ?202 638 653 5 654 -0 0 20
2 638 22 81 3 649 1521 513 645 655 643 641 656 657 0 0 81 1 651 1524 442 202 656
 0 643 658 659 82 1 652 52428956 14 202 788 651 ?447 645 197 5 660 -0 0 447 645
 22 81 3 656 1523 513 202 661 651 649 662 663 0 0 81 1 658 1526 442 447 662 0 65
1 664 665 82 1 659 52166812 14 447 792 658 ?430 202 666 5 667 +0 0 430 202 22 81
 3 662 1525 513 447 668 658 656 669 670 0 0 81 1 664 1528 442 18 669 0 658 0 671
 82 1 665 45613212 14 18 1120 664 ?0 414 422 5 6 -0 0 0 414 22 81 3 669 1527 513
 18 672 664 662 0 673 0 0 82 1 671 1893400734 80 3 513 674 675 9000 0 0 0 0 3 5
 0 0 0 FFFFTFFFFFFFFFFF1 1 1 81 1 672 1351 676 18 0 669 677 0 678 82 6 673 0 -17
13229844 31110579 0 0 0 80 1 676 0 679 8001 0 0 0 0 3 5 0 0 0 FFFFTFTFFFFFFFFF2
 81 1 677 1350 676 414 0 680 681 672 682 83 255 3 678 1 1 1 81 3 680 1461 513 41
4 677 444 443 683 684 0 0 81 1 681 1349 676 439 0 443 685 677 686 83 3 682 1 1 1
 81 3 443 1459 513 439 681 440 0 680 687 0 0 81 1 685 1348 676 430 0 683 668 681
 688 83 3 686 1 1 1 81 3 683 1463 513 430 685 446 680 451 689 0 0 81 1 668 1347
 676 447 0 662 661 685 690 83 3 688 1 1 1 81 1 661 1346 676 202 0 656 655 668 69
1 83 3 690 1 1 1 81 1 655 1345 676 645 0 649 648 661 692 83 3 691 1 1 1 81 1 648
 1344 676 638 0 641 640 655 693 83 3 692 1 1 1 81 1 640 1343 676 217 0 634 633 6
48 694 83 3 693 1 1 1 81 1 633 1342 676 623 0 627 626 640 695 83 3 694 1 1 1 81
 1 626 1341 676 615 0 619 618 633 696 83 3 695 1 1 1 81 1 618 1340 676 607 0 611
 610 626 697 83 3 696 1 1 1 81 1 610 1339 676 599 0 603 602 618 698 83 3 697 1 1
 1 81 1 602 1338 676 591 0 595 594 610 699 83 3 698 1 1 1 81 1 594 1337 676 583
 0 587 586 602 700 83 3 699 1 1 1 81 1 586 1336 676 575 0 579 578 594 701 83 3 7
00 1 1 1 81 1 578 1335 676 567 0 571 570 586 702 83 3 701 1 1 1 81 1 570 1334 67
6 559 0 563 562 578 703 83 3 702 1 1 1 81 1 562 1333 676 551 0 555 554 570 704 8
3 3 703 1 1 1 81 1 554 1332 676 543 0 547 546 562 705 83 3 704 1 1 1 81 1 546 13
31 676 535 0 539 538 554 706 83 3 705 1 1 1 81 1 538 1330 676 528 0 531 530 546
 707 83 3 706 1 1 1 81 1 530 1329 676 521 0 524 523 538 708 83 3 707 1 1 1 81 1
 523 1328 676 458 0 516 709 530 710 83 3 708 1 1 1 81 1 709 1327 676 427 0 711 7
12 523 713 83 3 710 1 1 1 81 3 711 1473 513 427 709 465 714 715 716 0 0 81 1 712
 1326 676 435 0 714 717 709 718 83 3 713 1 1 1 81 3 714 1471 513 435 712 463 719
 711 720 0 0 81 1 717 1325 676 411 0 719 721 712 722 83 3 718 1 1 1 81 3 719 146
9 513 411 717 461 723 714 724 0 0 81 1 721 1324 676 420 0 715 725 717 726 83 3 7
22 1 1 1 81 3 715 1475 513 420 721 466 711 727 728 0 0 81 1 725 1323 676 467 0 7
29 730 721 731 83 3 726 1 1 1 81 3 729 1479 513 467 725 479 727 732 733 0 0 81 1
 730 1322 676 480 0 732 734 725 735 83 3 731 1 1 1 81 3 732 1481 513 480 730 486
 729 515 736 0 0 81 1 734 1321 676 487 0 515 514 730 737 83 3 735 1 1 1 81 3 515
 1483 513 487 734 493 732 499 738 0 0 81 1 514 1320 676 471 0 499 739 734 740 83
 3 737 1 1 1 81 1 739 1319 676 454 0 727 741 514 742 83 3 740 1 1 1 81 3 727 147
7 513 454 739 470 715 729 743 0 0 81 1 741 1318 676 407 0 723 744 739 745 83 3 7
42 1 1 1 81 3 723 1467 513 407 741 452 451 719 746 0 0 81 1 744 1317 676 16 0 45
1 0 741 747 83 3 745 1 1 1 81 3 451 1465 513 16 744 449 683 723 748 0 0 83 3 747
 1 1 1 82 6 748 0 -1713229844 31110579 0 0 0 81 1 452 1468 442 407 723 0 449 461
 749 82 6 746 0 -1713229844 31110579 0 0 0 81 1 461 1470 442 411 719 0 452 463 7
50 82 1 749 239861918 81 1 463 1472 442 435 714 0 461 465 751 82 1 750 124046556
6 81 1 465 1474 442 427 711 0 463 466 752 82 1 751 1240596638 81 1 466 1476 442
 420 715 0 465 470 753 82 1 752 1240727710 81 1 470 1478 442 454 727 0 466 479 7
54 82 1 753 1240858782 81 1 479 1480 442 467 729 0 470 486 755 82 1 754 24549800
5 81 1 486 1482 442 480 732 0 479 493 756 82 1 755 -800325483 82 1 756 -79875261
9 82 6 743 0 -1783629338 31110578 0 0 0 82 6 738 0 -538140982 31110578 0 0 0 82
 6 736 0 -538140982 31110578 0 0 0 82 6 733 0 -538140982 31110578 0 0 0 82 6 728
 0 -1713229844 31110579 0 0 0 82 6 724 0 -1713229844 31110579 0 0 0 82 6 720 0 -
1713229844 31110579 0 0 0 82 6 716 0 -1713229844 31110579 0 0 0 81 1 446 1464 44
2 430 683 0 444 449 757 82 6 689 0 -1713229844 31110579 0 0 0 81 1 444 1462 442
 414 680 0 440 446 758 82 1 757 1887502494 82 1 758 1891434654 82 6 687 0 -17132
29844 31110579 0 0 0 82 6 684 0 -1713229844 31110579 0 0 0 79 255 15 679 SDL/TYS
A_COLOUR79 18 675 DOWNSTREAM_FACE_ID82 6 670 0 2123437220 31110579 0 0 0 15 666
 794 0 221 447 0 50 667 800 0 447 660 601 0 +0 0 .013 0 0 1 1 0 0 50 660 802 0 2
02 654 667 0 +-.005 -.015 .013 1040834085586084e-30 1 0 -1 1040834085586084e-30
 0 50 601 696 0 591 667 609 0 +-.005 .015 .013 -1 3469446951953615e-31 0 -346944
6951953615e-31 -1 0 50 609 695 0 599 601 617 0 +-.005 .015 .013 3469446951953615
e-31 -1 0 1 3469446951953615e-31 0 50 617 694 0 607 609 625 0 +-.015 .015 .013 1
 0 0 0 0 -1 50 625 693 0 615 617 632 0 +-.005 .005 .013 0 1 0 0 0 1 50 632 691 0
 623 625 561 0 +0 0 .013 0 0 -1 -1 0 0 50 561 587 0 551 632 569 0 +.005 -.015 .0
13 1 3469446951953615e-31 0 -3469446951953615e-31 1 0 50 569 586 0 559 561 577 0
 +.005 -.015 .013 -1040834085586084e-30 1 0 -1 -1040834085586084e-30 0 50 577 58
5 0 567 569 585 0 +.015 -.015 .013 -1 -693889390390723e-30 0 693889390390723e-30
 -1 0 50 585 584 0 575 577 593 0 +.005 -.005 .013 867361737988404e-30 -1 0 1 867
361737988404e-30 0 50 593 582 0 583 585 553 0 +0 0 .013 0 0 -1 -1 0 0 50 553 478
 0 543 593 545 0 +0 0 .013 0 0 1 1 0 0 50 545 476 0 535 553 537 0 +.005 .005 .01
3 0 1 0 0 0 1 50 537 475 0 528 545 459 0 +.005 .015 .013 1 520417042793042e-30 0
 -520417042793042e-30 1 0 50 459 474 0 521 537 456 0 +.005 .015 .013 0 -1 0 0 0
 -1 50 654 803 0 645 647 660 0 +-.015 -.015 .013 1 -3469446951953615e-31 0 34694
46951953615e-31 1 0 50 647 804 0 638 639 654 0 +-.005 -.005 .013 -86736173798840
4e-30 -1 0 1 -867361737988404e-30 0 50 639 805 0 217 0 647 0 +-.005 -.015 .013 -
1 1734723475976805e-31 0 -1734723475976805e-31 -1 0 17 221 0 666 184 190 178 205
 213 0 218 +17 184 0 666 187 221 182 180 235 0 759 +17 190 0 666 221 187 188 203
 222 0 198 +17 218 0 215 205 216 178 192 760 0 0 -17 192 0 646 195 180 170 218 7
60 0 216 +16 760 747 0 ?192 761 0 762 0 0 1 16 761 751 0 ?763 207 760 764 0 0 1
 30 762 817 0 760 0 764 0 +-.005 -.005 .013 0 0 -1 30 764 816 0 761 762 765 0 +-
.015 -.005 .013 0 0 -1 30 765 815 0 207 764 223 0 +-.015 -.015 .013 0 0 -1 16 20
7 755 0 ?80 204 761 765 0 0 1 30 223 814 0 204 765 214 0 +-.005 -.015 .013 0 0 -
1 30 214 813 0 200 223 231 0 +-.005 -.015 .005 1 -1040834085586084e-30 0 30 231
 812 0 212 214 229 0 +-.015 -.015 .005 -3469446951953615e-31 -1 0 16 212 748 0 ?
208 224 200 231 0 0 1 17 208 0 653 206 763 78 210 212 0 199 +15 653 787 0 208 64
5 0 17 206 0 653 766 208 185 80 207 0 203 -17 763 0 653 208 766 193 759 761 0 21
0 +17 210 0 209 220 199 193 208 212 0 0 -17 766 0 653 763 206 182 187 233 0 0 -1
7 759 0 646 180 195 182 763 761 0 766 -15 646 783 0 195 638 0 17 180 0 646 192 7
59 178 184 235 0 221 -17 195 0 646 759 192 193 220 224 0 763 +17 187 0 666 190 1
84 185 766 233 0 206 +17 203 0 197 80 198 185 190 222 0 0 -82 6 663 0 2123437220
 31110579 0 0 0 82 6 657 0 2123437220 31110579 0 0 0 82 6 650 0 2123437220 31110
579 0 0 0 82 6 642 0 2123437220 31110579 0 0 0 82 6 635 0 2123437220 31110579 0
 0 0 15 631 685 0 264 623 0 17 264 0 631 163 169 157 767 249 0 768 +17 163 0 631
 166 264 161 159 261 0 769 +17 169 0 631 264 166 167 770 245 0 771 +17 767 0 600
 244 768 167 264 249 0 0 -17 768 0 600 767 256 157 172 225 0 0 -15 600 670 0 256
 591 0 17 256 0 600 768 244 149 772 254 0 773 +17 172 0 608 175 159 149 768 225
 0 256 +15 608 674 0 175 599 0 17 175 0 608 769 172 173 773 252 0 239 +17 159 0
 608 172 769 157 163 261 0 264 -17 769 0 608 159 175 161 239 227 0 774 -17 239 0
 616 251 774 173 769 227 0 775 +17 774 0 616 239 776 161 166 259 0 0 -15 616 678
 0 251 607 0 17 776 0 616 774 251 164 83 240 0 770 -17 166 0 631 169 163 164 774
 259 0 776 +17 251 0 616 776 239 81 775 248 0 777 +17 83 0 624 177 770 81 776 24
0 0 251 +17 770 0 624 83 771 164 169 245 0 0 -15 624 682 0 177 615 0 17 771 0 62
4 770 177 167 244 242 0 767 -17 177 0 624 771 83 160 777 246 0 244 +17 244 0 600
 256 767 160 771 242 0 772 +17 772 0 778 777 773 160 256 254 0 0 -15 778 610 0 7
73 16 209 17 777 0 778 775 772 81 177 246 0 0 -17 773 0 778 772 775 149 175 252
 0 0 -17 775 0 778 773 777 173 251 248 0 0 -82 6 628 0 2123437220 31110579 0 0 0
 82 6 620 0 2123437220 31110579 0 0 0 82 6 612 0 2123437220 31110579 0 0 0 82 6
 604 0 2123437220 31110579 0 0 0 82 6 596 0 2123437220 31110579 0 0 0 15 592 576
 0 293 583 0 17 293 0 592 142 148 136 779 278 0 780 +17 142 0 592 145 293 140 13
8 290 0 781 +17 148 0 592 293 145 146 782 274 0 783 +17 779 0 560 273 780 146 29
3 278 0 0 -17 780 0 560 779 285 136 151 257 0 0 -15 560 561 0 285 551 0 17 285 0
 560 780 273 125 784 283 0 785 +17 151 0 568 154 138 125 780 257 0 285 +15 568 5
65 0 154 559 0 17 154 0 568 781 151 152 785 281 0 268 +17 138 0 568 151 781 136
 142 290 0 293 -17 781 0 568 138 154 140 268 266 0 786 -17 268 0 576 280 786 152
 781 266 0 787 +17 786 0 576 268 788 140 145 288 0 0 -15 576 569 0 280 567 0 17
 788 0 576 786 280 143 86 269 0 782 -17 145 0 592 148 142 143 786 288 0 788 +17
 280 0 576 788 268 84 787 277 0 789 +17 86 0 584 156 782 84 788 269 0 280 +17 78
2 0 584 86 783 143 148 274 0 0 -15 584 573 0 156 575 0 17 783 0 584 782 156 146
 273 271 0 779 -17 156 0 584 783 86 139 789 275 0 273 +17 273 0 560 285 779 139
 783 271 0 784 +17 784 0 790 789 785 139 285 283 0 0 -15 790 501 0 785 16 778 17
 789 0 790 787 784 84 156 275 0 0 -17 785 0 790 784 787 125 154 281 0 0 -17 787
 0 790 785 789 152 280 277 0 0 -82 6 588 0 2123437220 31110579 0 0 0 82 6 580 0
 2123437220 31110579 0 0 0 82 6 572 0 2123437220 31110579 0 0 0 82 6 564 0 21234
37220 31110579 0 0 0 82 6 556 0 2123437220 31110579 0 0 0 15 552 467 0 296 543 0
 17 296 0 552 133 127 118 791 294 0 792 +17 133 0 552 130 296 131 135 297 0 793
 +17 127 0 552 296 130 114 794 302 0 795 +17 791 0 522 314 792 114 296 294 0 0 -
17 792 0 522 791 306 118 124 320 0 0 -15 522 452 0 306 458 0 17 306 0 522 792 31
4 122 796 286 0 797 +17 124 0 529 121 135 122 792 320 0 306 +15 529 456 0 121 52
1 0 17 121 0 529 793 124 119 797 307 0 319 +17 135 0 529 124 793 118 133 297 0 2
96 -17 793 0 529 135 121 131 319 317 0 798 -17 319 0 536 311 798 119 793 317 0 7
99 +17 798 0 536 319 800 131 130 300 0 0 -15 536 460 0 311 528 0 17 800 0 536 79
8 311 128 89 315 0 794 -17 130 0 552 127 133 128 798 300 0 800 +17 311 0 536 800
 319 87 799 309 0 801 +17 89 0 544 117 794 87 800 315 0 311 +17 794 0 544 89 795
 128 127 302 0 0 -15 544 464 0 117 535 0 17 795 0 544 794 117 114 314 304 0 791
 -17 117 0 544 795 89 115 801 298 0 314 +17 314 0 522 306 791 115 795 304 0 796
 +17 796 0 417 801 797 115 306 286 0 0 -15 417 392 0 797 16 790 17 801 0 417 799
 796 87 117 298 0 0 -17 797 0 417 796 799 122 121 307 0 0 -17 799 0 417 797 801
 119 311 309 0 0 -82 6 548 0 2123437220 31110579 0 0 0 82 6 540 0 2123437220 311
10579 0 0 0 82 6 532 0 2123437220 31110579 0 0 0 82 6 525 0 2123437220 31110579
 0 0 0 82 1 518 -797441899 82 6 517 0 -538140982 31110578 0 0 0 79 14 512 SWEntU
nchanged80 2 475 802 803 8044 0 0 0 0 3 5 0 0 0 FFFFTFFFTTFFFFFF3 2 84 255 6 495
 BAAAAB83 3 496 0 .01414213562373094 .01 79 17 803 SDL/TYSA_BLEND_ID84 6 491 BAA
AAB83 3 492 631088724176809e-44 .01414213562373094 .01 84 6 484 BAAAAB83 3 485 6
31088724176809e-44 .01414213562373094 .01 84 6 477 BAAAAB83 3 478 0 .01414213562
373094 .01 82 1 453 101908638 51 19 1111 0 414 441 6 0 +.02 .02 .005 0 0 -1 .01
 -1 0 0 82 1 445 1889468574 19 17 100 0 1 0 9 5 0 S0 74 4 CI16 index_map_offset0
 0 1 dCCZ20 15 11 0 0 669 473 664 804 805 806 807 808 13 672 2 0 0 0 0 0 0 0 0 0
 81 2 804 827 809 1 0 805 0 0 0 810 81 2 805 869 811 1 804 806 0 0 0 812 81 2 80
6 870 813 1 805 807 0 0 814 0 81 2 807 893 815 1 806 808 0 0 0 0 81 1 808 1160 8
16 1 807 13 0 0 817 81 2 13 1197 818 1 808 2 0 0 819 0 80 2 818 820 821 8004 0 0
 0 0 3 5 0 0 0 FFTFFFFFFFFFFFFF2 3 83 1 819 1e3 79 16 821 SDL/TYSA_DENSITY80 1 8
16 822 823 9000 1 1 1 1 1 1 1 1 0 FFTFFFFFFFFFFFFF1 82 1 817 3658 79 10 823 BODY
_MATCH80 2 815 824 825 9000 0 0 0 0 3 5 0 0 0 FFTFFFFFFFFFFFFF9 1 79 16 825 BODY
_RECIPE_200180 2 813 826 827 9000 0 0 0 0 3 5 0 0 0 FFTFTTTFFTFFFFFF10 10 98 255
 3 814 22278 -30254 49 79 23 827 SWIMPLICITBODYNAME_ID_U80 2 811 828 829 9000 0
 0 0 0 3 5 0 0 0 FFTFFFFFFFFFFFFF9 1 82 1 812 131 79 30 829 LAST_BODY_MODIFYING_
FEATURE_ID80 2 809 830 831 9000 0 0 0 0 3 5 0 0 0 FFTFFFFFFFFFFFFF9 1 82 1 810 1
28 79 19 831 ENT_TIME_STAMP_200180 2 12 832 833 9000 0 0 0 0 3 5 0 0 0 FFTFFFFFF
FFFFFFF9 1 82 1 14 109 79 12 833 ATOM_ID_20011 0 
