**ABCDEFGHIJKLMNOPQRSTUVWXYZabcdefghijklmnopqrstuvwxyz**************************
**PARASOLID !"#$%&'()*+,-./:;<=>?@[\]^_`{|}~0123456789**************************
**PART1;
MC=AMD64;
MC_MODEL=Intel64 Family 6 Model 154 Stepping 3, GenuineIntel;
MC_ID=unknown;
OS=Windows_NT;
OS_RELEASE=unknown;
FRU=Parasolid Version 35.1, build 210,  4-20-2023;
APPL=SOLIDWORKS 2024-2023282;
SITE=;
USER=unknown;
FORMAT=text;
GUISE=transmit;
KEY=Áã;
FILE=Áã¼þ2.x;
DATE=Wed May 29 17:12:05 2024;
**PART2;
SCH=SCH_3501210_35102;
USFLD_SIZE=0;
**PART3;
**END_OF_HEADER*****************************************************************
T51 : TRANSMIT FILE created by modeller version 350121023 SCH_3501210_35102_1300
6231 0 12 36 CCCI7 lattice222 0 CCCI4 mesh1006 0 I8 polyline1008 0 CCCCCCCDI5 ow
ner1040 0 CCCI16 boundary_lattice222 0 CCCI13 boundary_mesh1006 0 I17 boundary_p
olyline1008 0 CCCA16 index_map_offset0 0 1 dA9 index_map82 0 A17 node_id_index_m
ap82 0 A20 schema_embedding_map82 0 A5 child12 0 A14 lowest_node_id0 0 1 dA16 me
sh_offset_data206 0 Z1 1793 2 3 0 0 0 0 0 0 0 1e3 1e-8 0 4 0 1 0 1 1 5 0 6 7 8 0
 0 9 10 11 0 0 0 0 0 0 0 81 255 2 2 1711 12 1 13 0 0 0 0 14 70 11 CI9 list_type0
 0 1 uI10 notransmit0 0 1 lCCCDCCDI12 finger_index0 0 1 dI12 finger_block1012 0
 CZ3 0 4 T1 0 0 10 20 1 15 15 13 255 5 183 0 1 0 16 0 0 17 0 51 255 6 807 0 18 1
9 0 0 +1431146867680866e-32 -.0220710678118655 .050000012 0 0 1 .015 1 0 0 31 25
5 7 692 0 10 20 0 0 +1431146867680866e-32 -.0220710678118655 .05 0 0 -1 -1 0 0 .
015 29 255 8 1195 0 11 21 0 -.04101219330881985 .0203553390593273 .045 19 9 CCCC
CCI5 frame230 0 CA5 owner12 0 Z9 61 0 1 17 0 22 0 V0 16 255 10 683 0 ?23 0 24 7
 0 0 1 18 255 11 1193 0 25 0 26 8 ?1 17 255 25 0 27 28 29 11 30 31 0 32 -18 26 1
190 0 28 11 33 21 ?1 17 28 0 27 34 25 26 32 35 0 36 -18 33 1187 0 34 26 37 38 ?1
 29 21 1192 0 26 38 8 -.03535533905932745 .0260121933088197 .045 29 38 1189 0 33
 39 21 -1193260708375114e-32 -.00934314575050762 .045 29 39 1186 0 37 40 38 .035
3553390593273 .02601219330881985 .045 18 37 1184 0 41 33 42 39 ?1 29 40 1180 0 4
2 43 39 1257674520083184e-32 -.02065685424949235 .045 18 42 1178 0 29 37 44 40 ?
1 29 43 895 0 44 45 40 .00141421356237311 -.02348528137423855 .04 18 44 893 0 46
 42 47 43 ?1 29 45 891 0 47 48 43 .0438406204335659 .0189411254969544 .04 18 47
 889 0 49 44 50 45 ?1 29 48 887 0 50 51 45 .0438406204335659 .02176955262170055
 .04 18 50 885 0 52 47 53 48 ?1 29 51 883 0 53 54 48 .0367695526217004 .02884062
0433566 .04 18 53 881 0 55 50 56 51 ?1 29 54 879 0 56 57 51 .0339411254969542 .0
28840620433566 .04 18 56 877 0 58 53 59 54 ?1 29 57 875 0 59 60 54 -234187669256
869e-31 -.00510050506338833 .04 18 59 873 0 61 56 62 57 ?1 29 60 871 0 62 63 57
 -.0339411254969544 .0288406204335659 .04 18 62 869 0 64 59 65 60 ?1 29 63 867 0
 65 66 60 -.03676955262170055 .02884062043356585 .04 18 65 865 0 67 62 68 63 ?1
 29 66 863 0 68 69 63 -.04384062043356605 .02176955262170035 .04 18 68 861 0 70
 65 71 66 ?1 29 69 856 0 71 72 66 -.04384062043356605 .0189411254969542 .04 18 7
1 854 0 73 68 74 69 ?1 29 72 656 0 74 75 69 -.0247487373415293 .0380330085889910
5 .05 18 74 654 0 76 71 77 72 ?1 29 75 641 0 77 78 72 -.0530330085889911 .009748
73734152905 .05 18 77 639 0 79 74 80 75 ?1 29 78 638 0 80 81 75 -.01060660171779
816 -.0326776695296637 .05 18 80 636 0 23 77 82 78 ?1 29 81 623 0 82 83 78 -.045
9619407771257 .03803300858899095 .05 18 82 621 0 84 80 85 81 ?1 29 83 620 0 85 8
6 81 -.0530330085889912 .03096194077712545 .05 18 85 618 0 87 82 88 83 ?1 29 86
 611 0 88 89 83 .0247487373415291 .03803300858899115 .05 18 88 609 0 90 85 91 86
 ?1 29 89 596 0 91 92 86 .053033008588991 .0309619407771257 .05 18 91 594 0 93 8
8 94 89 ?1 29 92 593 0 94 95 89 .0459619407771255 .03803300858899115 .05 18 94 5
91 0 96 91 97 92 ?1 29 95 560 0 97 98 92 .0247487373415291 .03803300858899115 .0
4 18 97 558 0 99 94 100 95 ?1 29 98 557 0 100 101 95 .053033008588991 .030961940
7771257 .04 18 100 555 0 102 97 103 98 ?1 29 101 554 0 103 104 98 .0459619407771
255 .03803300858899115 .04 18 103 552 0 105 100 106 101 ?1 29 104 551 0 106 107
 101 -.0530330085889911 .00974873734152905 .04 18 106 549 0 108 103 109 104 ?1 2
9 107 548 0 109 110 104 -.01060660171779816 -.0326776695296637 .04 18 109 546 0
 111 106 112 107 ?1 29 110 545 0 112 113 107 -.0459619407771257 .038033008588991
 .04 18 112 543 0 114 109 115 110 ?1 29 113 542 0 115 116 110 -.0530330085889912
 .03096194077712545 .04 18 115 540 0 117 112 118 113 ?1 29 116 539 0 118 119 113
 -.0247487373415293 .038033008588991 .04 18 118 537 0 120 115 121 116 ?1 29 119
 524 0 121 122 116 .01060660171779824 -.0326776695296637 .05 18 121 522 0 123 11
8 124 119 ?1 29 122 521 0 124 125 119 .053033008588991 .00974873734152927 .05 18
 124 519 0 126 121 127 122 ?1 29 125 518 0 127 128 122 .01060660171779824 -.0326
7766952966365 .04 18 127 516 0 129 124 130 125 ?1 29 128 515 0 130 131 125 .0530
33008588991 .00974873734152927 .04 18 130 513 0 132 127 133 128 ?1 29 131 135 0
 134 135 128 .075 .04 0 18 134 118 0 136 137 138 131 ?1 29 135 136 0 138 139 131
 .075 -.04 0 18 138 119 0 140 134 141 135 ?1 29 139 137 0 141 142 135 .065 -.05
 0 18 141 120 0 143 138 144 139 ?1 29 142 138 0 144 145 139 -.065 -.05 0 18 144
 121 0 146 141 147 142 ?1 29 145 139 0 147 148 142 -.075 -.04 0 18 147 122 0 149
 144 150 145 ?1 29 148 140 0 150 151 145 -.075 .04 0 18 150 123 0 152 147 153 14
8 ?1 29 151 141 0 153 154 148 -.065 .05 0 18 153 124 0 155 150 156 151 ?1 29 154
 142 0 156 157 151 .065 .05 0 18 156 125 0 158 153 159 154 ?1 29 157 60 0 133 16
0 154 .075 .04 .05 18 133 58 0 161 130 162 157 ?1 29 160 57 0 162 163 157 .075 -
.04 .05 18 162 55 0 164 133 165 160 ?1 29 163 54 0 165 166 160 .065 -.05 .05 18
 165 52 0 167 162 168 163 ?1 29 166 51 0 168 169 163 -.065 -.05 .05 18 168 49 0
 170 165 171 166 ?1 29 169 48 0 171 172 166 -.075 -.04 .05 18 171 46 0 173 168 1
74 169 ?1 29 172 45 0 174 175 169 -.075 .04 .05 18 174 43 0 176 171 177 172 ?1 2
9 175 42 0 177 178 172 -.065 .05 .05 18 177 40 0 179 174 137 175 ?1 29 178 39 0
 137 180 175 .065 .05 .05 18 137 37 0 181 177 134 178 ?1 29 180 433 0 159 182 17
8 -589805981832114e-31 .0132842712474619 .05 18 159 329 0 183 156 184 180 ?1 29
 182 441 0 184 185 180 -589805981832114e-31 .0132842712474619 .04 18 184 330 0 1
86 159 187 182 ?1 29 185 1101 0 188 189 182 -.00141421356237307 -.02348528137423
86 .04 18 188 991 0 190 191 192 185 ?1 29 189 1112 0 187 193 185 -.0014142135623
7307 -.0234852813742386 .045 18 187 1001 0 194 184 195 189 ?1 29 193 1113 0 195
 196 189 -.04384062043356605 .0189411254969542 .045 18 195 1000 0 197 187 198 19
3 ?1 29 196 1114 0 198 199 193 -.04384062043356605 .02176955262170035 .045 18 19
8 999 0 200 195 201 196 ?1 29 199 1115 0 201 202 196 -.03676955262170055 .028840
62043356585 .045 18 201 998 0 203 198 204 199 ?1 29 202 1116 0 204 205 199 -.033
9411254969544 .0288406204335659 .045 18 204 997 0 206 201 207 202 ?1 29 205 1117
 0 207 208 202 -22340947939612e-30 -.00510050506338833 .045 18 207 996 0 209 204
 210 205 ?1 29 208 1118 0 210 211 205 .0339411254969542 .028840620433566 .045 18
 210 995 0 212 207 213 208 ?1 29 211 1119 0 213 214 208 .0367695526217004 .02884
0620433566 .045 18 213 994 0 215 210 216 211 ?1 29 214 1120 0 216 217 211 .04384
06204335659 .02176955262170055 .045 18 216 993 0 218 213 219 214 ?1 29 217 1121
 0 219 220 214 .0438406204335659 .0189411254969544 .045 18 219 992 0 221 216 191
 217 ?1 29 220 1122 0 191 222 217 .00141421356237311 -.02348528137423855 .045 18
 191 982 0 223 219 188 220 ?1 29 222 1318 0 224 225 220 .0410121933088197 .02035
533905932745 .045 18 224 1244 0 226 227 0 222 ?1 29 225 1320 0 192 228 222 -.041
01219330881985 .0203553390593273 .055 18 192 1254 0 229 188 230 225 ?1 29 228 13
21 0 230 231 225 -.03535533905932745 .0260121933088197 .055 18 230 1253 0 232 19
2 233 228 ?1 29 231 1322 0 233 234 228 -1193260708375114e-32 -.00934314575050762
 .055 18 233 1252 0 235 230 236 231 ?1 29 234 1323 0 236 237 231 .03535533905932
73 .02601219330881985 .055 18 236 1251 0 238 233 239 234 ?1 29 237 1324 0 239 24
0 234 .0410121933088197 .02035533905932745 .055 18 239 1250 0 241 236 227 237 ?1
 29 240 1325 0 227 0 237 1257674520083184e-32 -.02065685424949235 .055 18 227 12
45 0 242 239 224 240 ?1 17 242 0 243 244 245 227 241 246 0 247 -15 255 243 1263
 0 248 249 0 17 244 0 243 248 242 42 250 251 0 30 +17 245 0 243 242 248 239 252
 253 0 254 -17 241 0 255 238 247 239 242 246 0 245 +16 246 1229 0 ?241 256 257 2
58 0 0 1 17 247 0 255 241 229 227 259 257 0 250 +15 255 1282 0 247 260 0 17 229
 0 255 247 232 192 261 262 0 263 +17 259 0 264 265 250 192 247 257 0 0 -16 257 1
226 0 ?247 246 35 266 0 0 1 17 250 0 264 259 30 227 244 251 0 0 -15 264 1259 0 3
0 267 0 17 30 0 264 250 265 42 25 31 0 0 +16 251 1209 0 ?244 268 253 269 0 0 1 1
6 268 904 0 ?270 271 251 272 0 0 1 16 253 1213 0 ?252 251 273 274 0 0 1 30 255 2
69 1296 0 251 274 275 0 +1257674520083184e-32 -.02065685424949235 .055 0 0 -1 30
 274 1297 0 253 276 269 0 +.0410121933088197 .02035533905932745 .055 0 0 -1 31 2
75 1100 0 277 269 278 0 +1431146867680866e-32 -.0220710678118655 .045 0 0 1 1 0
 0 .002 16 277 948 0 ?279 280 281 275 0 0 1 30 278 1099 0 280 275 282 0 +.001414
21356237311 -.02348528137423855 .045 .707106781186546 .707106781186549 0 16 280
 951 0 ?221 283 277 278 0 0 1 31 282 1098 0 283 278 284 0 +.0424264068711928 .02
035533905932745 .045 0 0 1 1 0 0 .002 16 283 954 0 ?218 285 280 282 0 0 1 30 284
 1097 0 285 282 286 0 +.0438406204335659 .02176955262170055 .045 -.7071067811865
49 .707106781186547 0 16 285 957 0 ?215 287 283 284 0 0 1 31 286 1096 0 287 284
 288 0 +.0353553390593273 .02742640687119295 .045 0 0 1 1 0 0 .002 16 287 960 0
 ?212 289 285 286 0 0 1 30 288 1095 0 289 286 290 0 +.0339411254969542 .02884062
0433566 .045 -.707106781186546 -.707106781186549 0 16 289 963 0 ?209 291 287 288
 0 0 1 30 290 1094 0 291 288 292 0 +-22340947939612e-30 -.00510050506338833 .045
 -.707106781186549 .707106781186546 0 16 291 966 0 ?206 293 289 290 0 0 1 31 292
 1093 0 293 290 294 0 +-.0353553390593275 .0274264068711928 .045 0 0 1 1 0 0 .00
2 16 293 969 0 ?203 295 291 292 0 0 1 30 294 1092 0 295 292 296 0 +-.03676955262
170055 .02884062043356585 .045 -.707106781186546 -.707106781186549 0 16 295 972
 0 ?200 297 293 294 0 0 1 31 296 1091 0 297 294 298 0 +-.04242640687119295 .0203
553390593273 .045 0 0 1 1 0 0 .002 16 297 975 0 ?197 299 295 296 0 0 1 30 298 10
90 0 299 296 272 0 +-.04384062043356605 .0189411254969542 .045 .707106781186549
 -.707106781186546 0 16 299 978 0 ?194 300 297 298 0 0 1 31 272 1089 0 268 298 3
01 0 +1431146867680866e-32 -.0220710678118655 .04 0 0 1 1 0 0 .002 30 301 1088 0
 271 272 302 0 +.00141421356237311 -.02348528137423855 .04 .707106781186546 .707
106781186549 0 16 271 908 0 ?303 304 268 301 0 0 1 31 302 1087 0 304 301 305 0 +
.0424264068711928 .02035533905932745 .04 0 0 1 1 0 0 .002 16 304 912 0 ?306 307
 271 302 0 0 1 30 305 1086 0 307 302 308 0 +.0438406204335659 .02176955262170055
 .04 -.707106781186549 .707106781186547 0 16 307 916 0 ?309 310 304 305 0 0 1 31
 308 1085 0 310 305 311 0 +.0353553390593273 .02742640687119295 .04 0 0 1 1 0 0
 .002 16 310 920 0 ?312 313 307 308 0 0 1 30 311 1084 0 313 308 314 0 +.03394112
54969542 .028840620433566 .04 -.707106781186546 -.707106781186549 0 16 313 924 0
 ?315 316 310 311 0 0 1 30 314 1083 0 316 311 317 0 +-22340947939612e-30 -.00510
050506338833 .04 -.707106781186549 .707106781186546 0 16 316 928 0 ?318 319 313
 314 0 0 1 31 317 1082 0 319 314 320 0 +-.0353553390593275 .0274264068711928 .04
 0 0 1 1 0 0 .002 16 319 932 0 ?321 322 316 317 0 0 1 30 320 1081 0 322 317 323
 0 +-.03676955262170055 .02884062043356585 .04 -.707106781186546 -.7071067811865
49 0 16 322 936 0 ?324 325 319 320 0 0 1 31 323 1080 0 325 320 326 0 +-.04242640
687119295 .0203553390593273 .04 0 0 1 1 0 0 .002 16 325 940 0 ?327 281 322 323 0
 0 1 30 326 1079 0 281 323 328 0 +-.04384062043356605 .0189411254969542 .04 .707
106781186549 -.707106781186546 0 16 281 944 0 ?329 277 325 326 0 0 1 30 328 1078
 0 300 326 330 0 +-.00141421356237307 -.0234852813742386 .045 0 0 -1 16 300 907
 0 ?331 332 299 328 0 0 1 30 330 1077 0 332 328 333 0 +-.04384062043356605 .0189
411254969542 .045 0 0 -1 16 332 947 0 ?334 335 300 330 0 0 1 30 333 1076 0 335 3
30 336 0 +-.04384062043356605 .02176955262170035 .045 0 0 -1 16 335 943 0 ?337 3
38 332 333 0 0 1 30 336 1075 0 338 333 339 0 +-.03676955262170055 .0288406204335
6585 .045 0 0 -1 16 338 939 0 ?340 341 335 336 0 0 1 30 339 1074 0 341 336 342 0
 +-.0339411254969544 .0288406204335659 .045 0 0 -1 16 341 935 0 ?343 344 338 339
 0 0 1 30 342 1073 0 344 339 345 0 +-22340947939612e-30 -.00510050506338833 .045
 0 0 -1 16 344 931 0 ?346 347 341 342 0 0 1 30 345 1072 0 347 342 348 0 +.033941
1254969542 .028840620433566 .045 0 0 -1 16 347 927 0 ?349 350 344 345 0 0 1 30 3
48 1071 0 350 345 351 0 +.0367695526217004 .028840620433566 .045 0 0 -1 16 350 9
23 0 ?352 353 347 348 0 0 1 30 351 1070 0 353 348 354 0 +.0438406204335659 .0217
6955262170055 .045 0 0 -1 16 353 919 0 ?355 356 350 351 0 0 1 30 354 1069 0 356
 351 357 0 +.0438406204335659 .0189411254969544 .045 0 0 -1 16 356 915 0 ?358 35
9 353 354 0 0 1 30 357 1068 0 359 354 360 0 +.00141421356237311 -.02348528137423
855 .045 0 0 -1 16 359 911 0 ?361 362 356 357 0 0 1 30 360 428 0 362 357 363 0 +
.01414213562373092 -.000857864376269014 .04 -.707106781186549 .707106781186546 0
 16 362 284 0 ?364 365 359 360 0 0 1 30 363 427 0 365 360 366 0 +-.0636396103067
894 .02035533905932725 .04 .707106781186546 .707106781186549 0 16 365 541 0 ?367
 368 362 363 0 0 1 30 366 426 0 368 363 369 0 +-.01414213562373092 -.02914213562
3731 .04 -.707106781186549 .707106781186546 0 16 368 547 0 ?370 371 365 366 0 0
 1 30 369 425 0 371 366 372 0 +.01414213562373098 -.02914213562373095 .04 -.7071
06781186546 -.707106781186549 0 16 371 514 0 ?373 374 368 369 0 0 1 30 372 424 0
 374 369 375 0 +.03535533905932725 .0486396103067894 .04 .707106781186549 -.7071
06781186546 0 16 374 553 0 ?376 377 371 372 0 0 1 30 375 423 0 377 372 378 0 +-.
01414213562373098 -.000857864376269075 .04 -.707106781186546 -.707106781186549 0
 16 377 559 0 ?186 379 374 375 0 0 1 30 378 416 0 379 375 380 0 +-58980598183211
4e-31 .0132842712474619 .050000012 0 0 -1 16 379 283 0 ?381 382 377 378 0 0 1 31
 380 7 0 383 378 384 0 +.065 .04 .05 0 0 1 -1 0 0 .01 16 383 5 0 ?385 386 387 38
0 0 0 1 30 384 11 0 386 380 388 0 +-.065 .05 .05 -1 0 0 16 386 9 0 ?179 389 383
 384 0 0 1 31 388 15 0 389 384 390 0 +-.065 .04 .05 0 0 1 1 0 0 .01 16 389 13 0
 ?176 391 386 388 0 0 1 30 390 19 0 391 388 392 0 +-.075 .04 .05 -17347234759768
1e-30 -1 0 16 391 17 0 ?173 393 389 390 0 0 1 31 392 23 0 393 390 394 0 +-.065 -
.04 .05 0 0 1 1 0 0 .01 16 393 21 0 ?170 395 391 392 0 0 1 30 394 27 0 395 392 3
96 0 +-.065 -.05 .05 1 0 0 16 395 25 0 ?167 397 393 394 0 0 1 31 396 31 0 397 39
4 398 0 +.065 -.04 .05 0 0 1 1 0 0 .01 16 397 29 0 ?164 399 395 396 0 0 1 30 398
 35 0 399 396 400 0 +.075 .04 .05 -173472347597681e-30 1 0 16 399 33 0 ?161 401
 397 398 0 0 1 31 400 134 0 382 398 402 0 +.065 .04 0 0 0 1 -1 0 0 .01 16 382 11
4 0 ?403 404 379 400 0 0 1 30 402 133 0 404 400 405 0 +-.065 .05 0 -1 0 0 16 404
 110 0 ?155 406 382 402 0 0 1 31 405 132 0 406 402 407 0 +-.065 .04 0 0 0 1 1 0
 0 .01 16 406 106 0 ?152 408 404 405 0 0 1 30 407 131 0 408 405 409 0 +-.075 .04
 0 -173472347597681e-30 -1 0 16 408 102 0 ?149 410 406 407 0 0 1 31 409 130 0 41
0 407 411 0 +-.065 -.04 0 0 0 1 1 0 0 .01 16 410 98 0 ?146 412 408 409 0 0 1 30
 411 129 0 412 409 413 0 +-.065 -.05 0 1 0 0 16 412 94 0 ?143 414 410 411 0 0 1
 31 413 128 0 414 411 415 0 +.065 -.04 0 0 0 1 1 0 0 .01 16 414 90 0 ?140 387 41
2 413 0 0 1 30 415 127 0 387 413 416 0 +.075 .04 0 -173472347597681e-30 1 0 16 3
87 86 0 ?136 383 414 415 0 0 1 30 416 175 0 401 415 417 0 +.075 .04 .05 0 0 -1 1
6 401 143 0 ?418 419 399 416 0 0 1 30 417 176 0 419 416 420 0 +.075 -.04 .05 0 0
 -1 16 419 144 0 ?421 422 401 417 0 0 1 30 420 177 0 422 417 423 0 +.065 -.05 .0
5 0 0 -1 16 422 145 0 ?424 425 419 420 0 0 1 30 423 178 0 425 420 426 0 +-.065 -
.05 .05 0 0 -1 16 425 146 0 ?427 428 422 423 0 0 1 30 426 179 0 428 423 429 0 +-
.075 -.04 .05 0 0 -1 16 428 147 0 ?430 431 425 426 0 0 1 30 429 180 0 431 426 43
2 0 +-.075 .04 .05 0 0 -1 16 431 148 0 ?433 434 428 429 0 0 1 30 432 181 0 434 4
29 435 0 +-.065 .05 .05 0 0 -1 16 434 149 0 ?436 437 431 432 0 0 1 30 435 182 0
 437 432 438 0 +.065 .05 .05 0 0 -1 16 437 150 0 ?439 440 434 435 0 0 1 30 438 2
58 0 440 435 441 0 +.0458578643762689 .059142135623731 .05 -.707106781186546 -.7
07106781186549 0 16 440 610 0 ?183 442 437 438 0 0 1 30 441 262 0 442 438 443 0
 +.0544974746830584 .0294974746830583 .05 .707106781186549 -.707106781186546 0 1
6 442 592 0 ?444 445 440 441 0 0 1 30 443 266 0 445 441 446 0 +.0741421356237309
 .0308578643762692 .05 -.707106781186546 -.707106781186549 0 16 445 520 0 ?447 4
48 442 443 0 0 1 30 446 270 0 448 443 449 0 +-.00914213562373073 -.0341421356237
3115 .05 -.707106781186549 .707106781186546 0 16 448 637 0 ?450 451 445 446 0 0
 1 30 449 274 0 451 446 452 0 +.01050252531694142 .0944974746830583 .05 .7071067
81186546 .707106781186549 0 16 451 619 0 ?453 454 448 449 0 0 1 30 452 277 0 454
 449 455 0 +.0191421356237311 -.00585786437626917 .05 -.707106781186549 .7071067
81186546 0 16 454 275 0 ?456 457 451 452 0 0 1 30 455 527 0 457 452 458 0 -.0106
0660171779824 -.03267766952966365 .05 0 0 -1 16 457 525 0 ?123 459 454 455 0 0 1
 30 458 533 0 459 455 460 0 +.053033008588991 .00974873734152927 .04 0 0 -1 16 4
59 531 0 ?461 462 457 458 0 0 1 31 460 563 0 462 458 463 0 -1431146867680866e-32
 -.0220710678118655 .04 0 0 -1 -1 0 0 .015 16 462 561 0 ?129 464 459 460 0 0 1 3
1 463 569 0 464 460 465 0 --.0353553390593275 .0274264068711928 .04 0 0 -1 -1 0
 0 .015 16 464 567 0 ?114 466 462 463 0 0 1 31 465 575 0 466 463 467 0 --.042426
40687119295 .0203553390593273 .04 0 0 -1 -1 0 0 .015 16 466 573 0 ?108 468 464 4
65 0 0 1 31 467 581 0 468 465 469 0 -.0353553390593273 .02742640687119295 .04 0
 0 -1 -1 0 0 .015 16 468 579 0 ?99 470 466 467 0 0 1 31 469 587 0 470 467 471 0
 -.0424264068711928 .02035533905932745 .04 0 0 -1 -1 0 0 .015 16 470 585 0 ?102
 472 468 469 0 0 1 30 471 599 0 472 469 473 0 +.0459619407771255 .03803300858899
115 .050000012 0 0 -1 16 472 597 0 ?474 475 470 471 0 0 1 30 473 605 0 475 471 4
76 0 -.053033008588991 .0309619407771257 .05 0 0 -1 16 475 603 0 ?93 477 472 473
 0 0 1 30 476 614 0 477 473 478 0 -.0247487373415291 .0380330085889911 .05000001
2 0 0 -1 16 477 612 0 ?90 479 475 476 0 0 1 30 478 626 0 479 476 480 0 --.045961
9407771257 .03803300858899095 .050000012 0 0 -1 16 479 624 0 ?84 481 477 478 0 0
 1 30 480 632 0 481 478 482 0 +-.0530330085889912 .03096194077712545 .04 0 0 -1
 16 481 630 0 ?483 484 479 480 0 0 1 30 482 644 0 484 480 485 0 +-.0106066017177
9816 -.0326776695296637 .04 0 0 -1 16 484 642 0 ?486 487 481 482 0 0 1 30 485 65
0 0 487 482 488 0 --.0530330085889911 .00974873734152904 .05 0 0 -1 16 487 648 0
 ?79 489 484 485 0 0 1 30 488 659 0 489 485 490 0 +-.0247487373415293 .038033008
588991 .050000012 0 0 -1 16 489 657 0 ?491 492 487 488 0 0 1 31 490 688 0 492 48
8 493 0 +.0424264068711928 .02035533905932745 .05 0 0 -1 -1 0 0 .015 16 492 663
 0 ?126 494 489 490 0 0 1 31 493 689 0 494 490 495 0 +.0353553390593273 .0274264
0687119295 .05 0 0 -1 -1 0 0 .015 16 494 668 0 ?96 496 492 493 0 0 1 31 495 690
 0 496 493 20 0 +-.04242640687119295 .0203553390593273 .05 0 0 -1 -1 0 0 .015 16
 496 673 0 ?87 24 494 495 0 0 1 31 20 691 0 24 495 7 0 +-.0353553390593275 .0274
264068711928 .05 0 0 -1 -1 0 0 .015 16 24 678 0 ?76 10 496 20 0 0 1 17 76 0 497
 498 453 74 499 24 0 456 +15 497 276 0 498 500 0 17 498 0 497 501 76 159 456 454
 0 0 -17 453 0 497 76 87 82 502 451 0 499 +17 499 0 503 504 505 82 76 24 0 0 -17
 456 0 506 491 507 74 498 454 0 505 +15 506 350 0 456 508 0 17 491 0 506 509 456
 118 505 489 0 364 +17 507 0 506 456 509 159 381 379 0 498 -17 505 0 503 499 120
 74 491 489 0 0 -15 503 775 0 499 510 0 17 120 0 503 505 504 118 114 464 0 491 -
17 504 0 503 120 499 112 84 479 0 0 -17 114 0 511 512 364 112 120 464 0 367 +15
 511 400 0 513 16 514 17 512 0 511 108 114 115 367 365 0 0 -17 364 0 511 114 186
 118 509 362 0 0 +17 367 0 515 84 483 112 512 365 0 504 +15 515 354 0 502 516 0
 17 84 0 515 502 367 82 504 479 0 453 +17 483 0 515 367 502 115 517 481 0 512 +1
7 502 0 515 483 84 85 453 451 0 517 -17 517 0 518 519 117 85 483 481 0 0 -15 518
 754 0 519 520 0 17 519 0 518 521 517 77 87 496 0 0 -17 117 0 518 517 521 115 10
8 466 0 483 -17 521 0 518 117 519 106 79 487 0 0 -17 108 0 511 522 512 106 117 4
66 0 370 +17 522 0 511 129 108 109 370 368 0 0 -17 370 0 523 79 486 106 522 368
 0 521 +15 523 358 0 370 524 0 17 79 0 523 525 370 77 521 487 0 450 +17 486 0 52
3 370 525 109 526 484 0 522 +17 525 0 523 486 79 80 450 448 0 526 -17 526 0 527
 528 111 80 486 484 0 0 -15 527 796 0 528 18 0 17 528 0 527 529 526 121 23 10 0
 0 -17 111 0 527 526 529 109 129 462 0 486 -17 529 0 527 111 528 127 123 457 0 0
 -17 129 0 511 513 522 127 111 462 0 373 +17 513 0 511 102 129 130 373 371 0 0 -
17 373 0 530 123 461 127 513 371 0 529 +15 530 362 0 531 532 0 17 123 0 530 531
 373 121 529 457 0 447 +17 461 0 530 373 531 130 533 459 0 513 +17 531 0 530 461
 123 124 447 445 0 533 -17 533 0 534 535 132 124 461 459 0 0 -15 534 712 0 535 5
36 0 17 535 0 534 537 533 91 126 492 0 0 -17 132 0 534 533 537 130 102 470 0 461
 -17 537 0 534 132 535 100 93 475 0 0 -17 102 0 511 538 513 100 132 470 0 376 +1
7 538 0 511 99 102 103 376 374 0 0 -17 376 0 539 93 474 100 538 374 0 537 +15 53
9 366 0 376 540 0 17 93 0 539 541 376 91 537 475 0 444 +17 474 0 539 376 541 103
 542 472 0 538 +17 541 0 539 474 93 94 444 442 0 542 -17 542 0 543 544 105 94 47
4 472 0 0 -15 543 733 0 544 545 0 17 544 0 543 546 542 88 96 494 0 0 -17 105 0 5
43 542 546 103 99 468 0 474 -17 546 0 543 105 544 97 90 477 0 0 -17 99 0 511 186
 538 97 105 468 0 547 +17 186 0 511 364 99 184 547 377 0 381 +17 547 0 548 90 38
1 97 186 377 0 546 -15 548 370 0 547 549 0 17 90 0 548 183 547 88 546 477 0 501
 +17 381 0 548 547 183 184 507 379 0 509 +17 183 0 548 381 90 159 501 440 0 507
 +17 509 0 506 507 491 184 364 362 0 0 -17 501 0 497 96 498 88 183 440 0 544 -17
 96 0 497 444 501 94 544 494 0 541 +17 444 0 497 126 96 91 541 442 0 535 +17 126
 0 497 447 444 124 535 492 0 531 +17 447 0 497 23 126 121 531 445 0 528 +17 23 0
 497 450 447 80 528 10 0 525 +17 450 0 497 87 23 77 525 448 0 519 +17 87 0 497 4
53 450 85 519 496 0 502 +14 255 549 367 550 ?536 540 548 5 551 +0 0 536 540 22 8
1 1 550 1713 552 549 553 0 0 554 555 14 536 711 554 ?545 549 534 5 556 -0 0 545
 549 22 14 540 363 557 ?549 532 539 5 558 -0 0 549 532 22 50 255 551 408 0 549 5
59 558 0 +-.01414213562373098 -.000857864376269075 .050000012 .707106781186549 -
.707106781186546 0 .707106781186546 .707106781186549 0 13 22 62 0 0 0 0 0 0 9 16
 14 16 900 560 ?500 0 511 5 559 -0 0 500 0 22 81 1 560 1719 552 16 561 0 557 562
 563 14 500 278 562 ?564 16 565 5 566 -0 0 564 16 22 50 559 410 0 16 567 551 0 +
0 0 .04 0 0 -1 -1 0 0 51 567 1055 0 568 569 559 0 -1431146867680866e-32 -.022071
0678118655 .045 0 0 -1 .002 -1 0 0 14 568 1003 570 ?571 18 572 5 567 -0 0 571 18
 22 50 569 1056 0 571 573 567 0 +.00141421356237311 -.02348528137423855 .045 -.7
07106781186549 .707106781186546 0 -.707106781186546 -.707106781186549 0 14 571 1
007 574 ?575 568 576 5 569 -0 0 575 568 22 51 573 1057 0 575 577 569 0 -.0424264
068711928 .02035533905932745 .045 0 0 -1 .002 -1 0 0 14 575 1011 578 ?579 571 58
0 5 573 -0 0 579 571 22 50 577 1058 0 579 581 573 0 +.0438406204335659 .02176955
262170055 .045 -.707106781186547 -.707106781186549 0 .707106781186549 -.70710678
1186547 0 14 579 1015 582 ?583 575 584 5 577 -0 0 583 575 22 51 581 1059 0 583 5
85 577 0 -.0353553390593273 .02742640687119295 .045 0 0 -1 .002 -1 0 0 14 583 10
19 586 ?587 579 588 5 581 -0 0 587 579 22 50 585 1060 0 587 589 581 0 +.03394112
54969542 .028840620433566 .045 .707106781186549 -.707106781186546 0 .70710678118
6546 .707106781186549 0 14 587 1023 590 ?591 583 592 5 585 -0 0 591 583 22 50 58
9 1061 0 591 593 585 0 +-22340947939612e-30 -.00510050506338833 .045 -.707106781
186546 -.707106781186549 0 .707106781186549 -.707106781186546 0 14 591 1027 594
 ?595 587 596 5 589 -0 0 595 587 22 51 593 1062 0 595 597 589 0 --.0353553390593
275 .0274264068711928 .045 0 0 -1 .002 -1 0 0 14 595 1031 598 ?599 591 600 5 593
 -0 0 599 591 22 50 597 1063 0 599 601 593 0 +-.03676955262170055 .0288406204335
6585 .045 .707106781186549 -.707106781186546 0 .707106781186546 .707106781186549
 0 14 599 1035 602 ?603 595 604 5 597 -0 0 603 595 22 51 601 1064 0 603 605 597
 0 --.04242640687119295 .0203553390593273 .045 0 0 -1 .002 -1 0 0 14 603 1039 60
6 ?607 599 608 5 601 -0 0 607 599 22 50 605 1065 0 607 609 601 0 +-.043840620433
56605 .0189411254969542 .045 .707106781186546 .707106781186549 0 -.7071067811865
49 .707106781186546 0 14 607 1043 610 ?611 603 612 5 605 -0 0 611 603 22 50 609
 1067 0 611 613 605 0 +1431146867680866e-32 -.0220710678118655 .045 0 0 1 1 0 0
 14 611 1047 614 ?267 607 27 5 609 +0 0 267 607 22 50 613 1288 0 267 615 609 0 +
-.04101219330881985 .0203553390593273 .055 .707106781186546 .707106781186549 0 -
.707106781186549 .707106781186546 0 14 267 1256 616 ?249 611 264 5 613 -0 0 249
 611 22 50 615 1289 0 249 617 613 0 +1257674520083184e-32 -.02065685424949235 .0
55 -.707106781186549 .707106781186546 0 -.707106781186546 -.707106781186549 0 14
 249 1260 618 ?619 267 243 5 615 -0 0 619 267 22 50 617 1290 0 619 620 615 0 +.0
410121933088197 .02035533905932745 .055 -.707106781186547 -.707106781186549 0 .7
07106781186549 -.707106781186547 0 14 619 1264 621 ?622 249 623 5 617 -0 0 622 2
49 22 50 620 1291 0 622 624 617 0 +.0353553390593273 .02601219330881985 .055 .70
7106781186549 -.707106781186546 0 .707106781186546 .707106781186549 0 14 622 126
8 625 ?626 619 627 5 620 -0 0 626 619 22 50 624 1292 0 626 628 620 0 +-119326070
8375114e-32 -.00934314575050762 .055 -.707106781186546 -.707106781186549 0 .7071
06781186549 -.707106781186546 0 14 626 1272 629 ?630 622 631 5 624 -0 0 630 622
 22 50 628 1293 0 630 632 624 0 +-.03535533905932745 .0260121933088197 .055 .707
106781186549 -.707106781186546 0 .707106781186546 .707106781186549 0 14 630 1276
 633 ?260 626 634 5 628 -0 0 260 626 22 50 632 1295 0 260 0 628 0 +0 0 .055 0 0
 1 1 0 0 14 260 1280 635 ?0 630 255 5 632 +0 0 0 630 22 81 1 635 1759 552 260 63
6 0 633 637 638 80 7 CCCCCDI12 legal_owners0 16 1 lCZ1 552 639 640 9000 1 1 1 1
 1 1 1 1 0 FFFFTFTFFFFFFFFF1 81 3 636 1758 641 260 642 635 643 644 645 0 0 81 1
 633 1757 552 630 643 0 629 635 646 81 1 637 1761 552 18 644 0 635 647 648 82 25
5 1 638 1745486005 14 18 795 637 ?568 510 527 5 6 -0 0 568 510 22 81 3 644 1760
 641 18 649 637 636 650 651 0 0 81 1 647 1763 552 510 650 0 637 652 653 82 1 648
 80674991 14 510 774 647 ?18 520 503 5 19 -0 0 18 520 22 81 3 650 1762 641 510 6
54 647 644 655 656 0 0 81 1 652 1765 552 520 655 0 647 657 658 82 1 653 78708911
 14 520 753 652 ?510 545 518 5 659 -0 0 510 545 22 81 3 655 1764 641 520 660 652
 650 661 662 0 0 81 1 657 1767 552 545 661 0 652 663 664 82 1 658 76742831 14 54
5 732 657 ?520 536 543 5 665 -0 0 520 536 22 81 3 661 1766 641 545 666 657 655 6
67 668 0 0 81 1 663 1769 552 532 667 0 657 669 670 82 1 664 74776751 14 532 359
 663 ?540 524 530 5 671 -0 0 540 524 22 81 3 667 1768 641 532 672 663 661 673 67
4 0 0 81 1 669 1771 552 524 673 0 663 675 676 82 1 670 -1887895377 14 524 355 66
9 ?532 516 523 5 677 -0 0 532 516 22 81 3 673 1770 641 524 678 669 667 679 680 0
 0 81 1 675 1773 552 516 679 0 669 681 682 82 1 676 -1887108945 14 516 351 675 ?
524 508 515 5 683 -0 0 524 508 22 81 3 679 1772 641 516 684 675 673 685 686 0 0
 81 1 681 1775 552 508 685 0 675 687 688 82 1 682 -1886322513 14 508 347 681 ?51
6 689 506 5 690 +0 0 516 689 22 81 3 685 1774 641 508 691 681 679 692 693 0 0 81
 1 687 1777 552 689 692 0 681 694 695 82 1 688 -1885863761 14 689 84 687 ?508 69
6 697 5 698 +0 0 508 696 22 81 3 692 1776 641 689 699 687 685 700 701 0 0 81 1 6
94 1779 552 696 700 0 687 702 703 82 1 695 706871437 14 696 152 694 ?689 704 705
 5 706 -0 0 689 704 22 81 3 700 1778 641 696 707 694 692 708 709 0 0 81 1 702 17
81 552 704 708 0 694 710 711 82 1 703 708575373 14 704 154 702 ?696 712 713 5 71
4 -0 0 696 712 22 81 3 708 1780 641 704 715 702 700 716 717 0 0 81 1 710 1783 55
2 712 716 0 702 718 719 82 1 711 708837517 14 712 156 710 ?704 720 721 5 722 -0
 0 704 720 22 81 3 716 1782 641 712 723 710 708 724 725 0 0 81 1 718 1785 552 72
0 724 0 710 726 727 82 1 719 709099661 14 720 158 718 ?712 728 729 5 730 -0 0 71
2 728 22 81 3 724 1784 641 720 731 718 716 732 733 0 0 81 1 726 1787 552 728 732
 0 718 734 735 82 1 727 709361805 14 728 160 726 ?720 736 737 5 738 -0 0 720 736
 22 81 3 732 1786 641 728 739 726 724 740 741 0 0 81 1 734 1789 552 736 740 0 72
6 742 743 82 1 735 709623949 14 736 162 734 ?728 744 745 5 746 -0 0 728 744 22 8
1 3 740 1788 641 736 747 734 732 748 749 0 0 81 1 742 1791 552 744 748 0 734 750
 751 82 1 743 709886093 14 744 164 742 ?736 564 752 5 753 -0 0 736 564 22 81 3 7
48 1790 641 744 754 742 740 755 756 0 0 81 1 750 1793 552 564 755 0 742 0 757 82
 1 751 710148237 14 564 166 750 ?744 500 758 5 759 -0 0 744 500 22 81 3 755 1792
 641 564 760 750 748 0 761 0 0 82 1 757 710410381 80 3 641 762 763 9000 0 0 0 0
 3 5 0 0 0 FFFFTFFFFFFFFFFF1 1 1 81 1 760 1548 764 564 0 755 765 754 766 82 6 76
1 0 533469442 31109543 0 0 0 80 1 764 0 767 8001 0 0 0 0 3 5 0 0 0 FFFFTFTFFFFFF
FFF2 81 1 765 1547 764 500 0 768 769 760 770 81 1 754 1549 764 744 0 748 760 747
 771 83 255 3 766 1 1 1 81 1 747 1550 764 736 0 740 754 739 772 83 3 771 1 1 1 8
1 1 739 1551 764 728 0 732 747 731 773 83 3 772 1 1 1 81 1 731 1552 764 720 0 72
4 739 723 774 83 3 773 1 1 1 81 1 723 1553 764 712 0 716 731 715 775 83 3 774 1
 1 1 81 1 715 1554 764 704 0 708 723 707 776 83 3 775 1 1 1 81 1 707 1555 764 69
6 0 700 715 699 777 83 3 776 1 1 1 81 1 699 1556 764 689 0 692 707 691 778 83 3
 777 1 1 1 81 1 691 1557 764 508 0 685 699 684 779 83 3 778 1 1 1 81 1 684 1558
 764 516 0 679 691 678 780 83 3 779 1 1 1 81 1 678 1559 764 524 0 673 684 672 78
1 83 3 780 1 1 1 81 1 672 1560 764 532 0 667 678 782 783 83 3 781 1 1 1 81 1 782
 1561 764 540 0 784 672 785 786 83 3 783 1 1 1 81 3 784 1716 641 540 782 557 787
 561 788 0 0 81 1 785 1562 764 549 0 553 782 789 790 83 3 786 1 1 1 81 3 553 171
2 641 549 785 550 0 787 791 0 0 81 1 789 1563 764 536 0 787 785 666 792 83 3 790
 1 1 1 81 3 787 1714 641 536 789 554 553 784 793 0 0 81 1 666 1564 764 545 0 661
 789 660 794 83 3 792 1 1 1 81 1 660 1565 764 520 0 655 666 654 795 83 3 794 1 1
 1 81 1 654 1566 764 510 0 650 660 649 796 83 3 795 1 1 1 81 1 649 1567 764 18 0
 644 654 797 798 83 3 796 1 1 1 81 1 797 1568 764 568 0 799 649 800 801 83 3 798
 1 1 1 81 3 799 1722 641 568 797 570 768 802 803 0 0 81 1 800 1569 764 571 0 802
 797 804 805 83 3 801 1 1 1 81 3 802 1724 641 571 800 574 799 806 807 0 0 81 1 8
04 1570 764 575 0 806 800 808 809 83 3 805 1 1 1 81 3 806 1726 641 575 804 578 8
02 810 811 0 0 81 1 808 1571 764 579 0 810 804 812 813 83 3 809 1 1 1 81 3 810 1
728 641 579 808 582 806 814 815 0 0 81 1 812 1572 764 583 0 814 808 816 817 83 3
 813 1 1 1 81 3 814 1730 641 583 812 586 810 818 819 0 0 81 1 816 1573 764 587 0
 818 812 820 821 83 3 817 1 1 1 81 3 818 1732 641 587 816 590 814 822 823 0 0 81
 1 820 1574 764 591 0 822 816 824 825 83 3 821 1 1 1 81 3 822 1734 641 591 820 5
94 818 826 827 0 0 81 1 824 1575 764 595 0 826 820 828 829 83 3 825 1 1 1 81 3 8
26 1736 641 595 824 598 822 830 831 0 0 81 1 828 1576 764 599 0 830 824 832 833
 83 3 829 1 1 1 81 3 830 1738 641 599 828 602 826 834 835 0 0 81 1 832 1577 764
 603 0 834 828 836 837 83 3 833 1 1 1 81 3 834 1740 641 603 832 606 830 838 839
 0 0 81 1 836 1578 764 607 0 838 832 840 841 83 3 837 1 1 1 81 3 838 1742 641 60
7 836 610 834 842 843 0 0 81 1 840 1579 764 611 0 842 836 844 845 83 3 841 1 1 1
 81 3 842 1744 641 611 840 614 838 846 847 0 0 81 1 844 1580 764 267 0 846 840 8
48 849 83 3 845 1 1 1 81 3 846 1746 641 267 844 616 842 850 851 0 0 81 1 848 158
1 764 249 0 850 844 852 853 83 3 849 1 1 1 81 3 850 1748 641 249 848 618 846 854
 855 0 0 81 1 852 1582 764 619 0 854 848 856 857 83 3 853 1 1 1 81 3 854 1750 64
1 619 852 621 850 858 859 0 0 81 1 856 1583 764 622 0 858 852 860 861 83 3 857 1
 1 1 81 3 858 1752 641 622 856 625 854 862 863 0 0 81 1 860 1584 764 626 0 862 8
56 864 865 83 3 861 1 1 1 81 3 862 1754 641 626 860 629 858 643 866 0 0 81 1 864
 1585 764 630 0 643 860 642 867 83 3 865 1 1 1 81 3 643 1756 641 630 864 633 862
 636 868 0 0 81 1 642 1586 764 260 0 636 864 0 869 83 3 867 1 1 1 83 3 869 1 1 1
 82 6 868 0 790505006 31109544 0 0 0 81 1 629 1755 552 626 862 0 625 633 870 82
 6 866 0 790505006 31109544 0 0 0 81 1 625 1753 552 622 858 0 621 629 871 82 1 8
70 1755054261 81 1 621 1751 552 619 854 0 618 625 872 82 1 871 1755316405 81 1 6
18 1749 552 249 850 0 616 621 873 82 1 872 1755578549 81 1 616 1747 552 267 846
 0 614 618 874 82 1 873 1755840693 81 1 614 1745 552 611 842 0 610 616 875 82 1
 874 1756102837 81 1 610 1743 552 607 838 0 606 614 876 82 1 875 -592445259 81 1
 606 1741 552 603 834 0 602 610 877 82 1 876 -576257870 81 1 602 1739 552 599 83
0 0 598 606 878 82 1 877 -575995726 81 1 598 1737 552 595 826 0 594 602 879 82 1
 878 -575733582 81 1 594 1735 552 591 822 0 590 598 880 82 1 879 -575471438 81 1
 590 1733 552 587 818 0 586 594 881 82 1 880 -575209294 81 1 586 1731 552 583 81
4 0 582 590 882 82 1 881 -574947150 81 1 582 1729 552 579 810 0 578 586 883 82 1
 882 -574685006 81 1 578 1727 552 575 806 0 574 582 884 82 1 883 -574422862 81 1
 574 1725 552 571 802 0 570 578 885 82 1 884 -574160718 81 1 570 1723 552 568 79
9 0 562 574 886 82 1 885 -573898574 81 1 562 1721 552 500 768 0 560 570 887 82 1
 886 -573636430 81 3 768 1720 641 500 765 562 561 799 888 0 0 82 1 887 -18905823
53 81 3 561 1718 641 16 769 560 784 768 889 0 0 82 6 888 0 -380556531 31109543 0
 0 0 81 1 769 1546 764 16 0 561 0 765 890 82 6 889 0 480176609 31109544 0 0 0 83
 3 890 1 1 1 82 6 863 0 790505006 31109544 0 0 0 82 6 859 0 790505006 31109544 0
 0 0 82 6 855 0 790505006 31109544 0 0 0 82 6 851 0 790505006 31109544 0 0 0 82
 6 847 0 790505006 31109544 0 0 0 82 6 843 0 480176609 31109544 0 0 0 82 6 839 0
 480176609 31109544 0 0 0 82 6 835 0 480176609 31109544 0 0 0 82 6 831 0 4801766
09 31109544 0 0 0 82 6 827 0 480176609 31109544 0 0 0 82 6 823 0 480176609 31109
544 0 0 0 82 6 819 0 480176609 31109544 0 0 0 82 6 815 0 480176609 31109544 0 0
 0 82 6 811 0 480176609 31109544 0 0 0 82 6 807 0 480176609 31109544 0 0 0 82 6
 803 0 480176609 31109544 0 0 0 81 1 554 1715 552 536 787 0 550 557 891 82 6 793
 0 -380556531 31109543 0 0 0 81 1 557 1717 552 540 784 0 554 560 892 82 1 891 72
810671 82 1 892 -1888681809 82 6 791 0 -380556531 31109543 0 0 0 82 6 788 0 -380
556531 31109543 0 0 0 83 3 770 1 1 1 79 255 15 767 SDL/TYSA_COLOUR79 18 763 DOWN
STREAM_FACE_ID15 758 165 0 403 564 0 51 759 174 0 564 753 556 0 -.065 .04 .05 0
 0 -1 .01 -1 0 0 50 753 173 0 744 746 759 0 +-.065 .05 .05 0 -1 0 0 0 -1 51 556
 723 0 536 759 665 0 +.0424264068711928 .02035533905932745 .050000012 0 0 1 .015
 1 0 0 51 665 744 0 545 556 659 0 +.0353553390593273 .02742640687119295 .0500000
12 0 0 -1 .015 -1 0 0 51 659 765 0 520 665 19 0 +-.04242640687119295 .0203553390
593273 .050000012 0 0 1 .015 1 0 0 51 19 786 0 510 659 6 0 +-.0353553390593275 .
0274264068711928 .050000012 0 0 -1 .015 -1 0 0 51 746 172 0 736 738 753 0 --.065
 .04 .05 0 0 -1 .01 -1 0 0 50 738 171 0 728 730 746 0 +-.075 .04 .05 1 -17347234
7597681e-30 0 173472347597681e-30 1 0 51 730 170 0 720 722 738 0 --.065 -.04 .05
 0 0 -1 .01 -1 0 0 50 722 169 0 712 714 730 0 +-.065 -.05 .05 0 1 0 0 0 1 51 714
 168 0 704 706 722 0 -.065 -.04 .05 0 0 -1 .01 -1 0 0 50 706 167 0 696 698 714 0
 +.075 .04 .05 -1 -173472347597681e-30 0 173472347597681e-30 -1 0 50 698 126 0 6
89 566 706 0 +.065 .04 0 0 0 -1 -1 0 0 50 566 3 0 500 690 698 0 +.065 .04 .05 0
 0 -1 -1 0 0 50 690 403 0 508 683 566 0 +.01414213562373092 -.000857864376269014
 .050000012 -.707106781186546 -.707106781186549 0 .707106781186549 -.70710678118
6546 0 50 683 404 0 516 677 690 0 +-.0636396103067894 .02035533905932725 .050000
012 -.707106781186549 .707106781186546 0 -.707106781186546 -.707106781186549 0 5
0 677 405 0 524 671 683 0 +-.01414213562373092 -.029142135623731 .050000012 -.70
7106781186546 -.707106781186549 0 .707106781186549 -.707106781186546 0 50 671 40
6 0 532 558 677 0 +.01414213562373098 -.02914213562373095 .050000012 .7071067811
86549 -.707106781186546 0 .707106781186546 .707106781186549 0 50 558 407 0 540 5
51 671 0 +.03535533905932725 .0486396103067894 .050000012 .707106781186546 .7071
06781186549 0 -.707106781186549 .707106781186546 0 17 403 0 758 893 418 156 894
 382 0 0 +17 893 0 758 895 403 137 439 437 0 0 -17 418 0 758 403 895 134 896 401
 0 894 +17 894 0 697 897 158 134 403 382 0 0 -15 697 85 0 894 689 0 17 897 0 697
 898 894 138 136 387 0 0 -17 158 0 697 894 899 156 155 404 0 439 -17 899 0 697 1
58 900 153 152 406 0 0 -17 155 0 752 901 439 153 158 404 0 436 +17 439 0 752 155
 181 156 893 437 0 403 +15 752 163 0 155 744 0 17 181 0 752 439 901 137 179 386
 0 385 -17 901 0 752 181 155 177 436 434 0 902 -17 179 0 565 176 385 177 181 386
 0 901 +17 385 0 565 179 161 137 895 383 0 893 +15 565 4 0 385 500 497 17 161 0
 565 385 164 133 903 399 0 896 +17 895 0 758 418 893 133 385 383 0 0 -17 164 0 5
65 161 167 162 904 397 0 905 +17 903 0 705 421 896 162 161 399 0 0 -17 896 0 705
 903 136 133 418 401 0 895 -15 705 151 0 136 696 0 17 136 0 705 896 421 134 897
 387 0 418 +17 421 0 705 136 903 138 905 419 0 897 +17 905 0 713 904 140 162 421
 419 0 903 -15 713 153 0 140 704 0 17 904 0 713 424 905 165 164 397 0 0 -17 140
 0 713 905 424 138 898 414 0 421 +17 424 0 713 140 904 141 906 422 0 898 +17 898
 0 697 907 897 141 140 414 0 0 -17 907 0 697 908 898 144 143 412 0 0 -17 908 0 6
97 900 907 147 146 410 0 0 -17 143 0 721 906 427 141 907 412 0 424 +15 721 155 0
 143 712 0 17 906 0 721 909 143 165 424 422 0 904 -17 427 0 721 143 909 144 910
 425 0 907 +17 909 0 721 427 906 168 167 395 0 0 -17 910 0 729 911 146 168 427 4
25 0 909 -15 729 157 0 146 720 0 17 911 0 729 430 910 171 170 393 0 0 -17 146 0
 729 910 430 144 908 410 0 427 +17 430 0 729 146 911 147 912 428 0 908 +17 912 0
 737 913 149 171 430 428 0 911 -15 737 159 0 149 728 0 17 913 0 737 433 912 174
 173 391 0 0 -17 149 0 737 912 433 147 900 408 0 430 +17 433 0 737 149 913 150 9
14 431 0 900 +17 900 0 697 899 908 150 149 408 0 0 -17 914 0 745 902 152 174 433
 431 0 913 -15 745 161 0 152 736 0 17 902 0 745 436 914 177 176 389 0 0 -17 152
 0 745 914 436 150 899 406 0 433 +17 436 0 745 152 902 153 901 434 0 899 +17 176
 0 565 173 179 174 902 389 0 914 +17 173 0 565 170 176 171 913 391 0 912 +17 170
 0 565 167 173 168 911 393 0 910 +17 167 0 565 164 170 165 909 395 0 906 +82 6 7
56 0 533469442 31109543 0 0 0 82 6 749 0 533469442 31109543 0 0 0 82 6 741 0 533
469442 31109543 0 0 0 82 6 733 0 533469442 31109543 0 0 0 82 6 725 0 533469442 3
1109543 0 0 0 82 6 717 0 533469442 31109543 0 0 0 82 6 709 0 533469442 31109543
 0 0 0 82 6 701 0 533469442 31109543 0 0 0 82 6 693 0 -380556531 31109543 0 0 0
 82 6 686 0 -380556531 31109543 0 0 0 82 6 680 0 -380556531 31109543 0 0 0 82 6
 674 0 -380556531 31109543 0 0 0 82 6 668 0 -380556531 31109543 0 0 0 82 6 662 0
 -380556531 31109543 0 0 0 82 6 656 0 -380556531 31109543 0 0 0 82 6 651 0 -3805
56531 31109543 0 0 0 82 1 646 1754792117 82 6 645 0 790505006 31109544 0 0 0 79
 14 640 SWEntUnchanged15 634 1279 0 32 630 0 17 32 0 634 263 915 11 28 35 0 265
 +17 263 0 634 261 32 192 265 916 0 259 -17 915 0 634 32 261 26 917 918 0 0 +16
 35 1222 0 ?32 257 919 920 0 0 1 17 265 0 264 30 259 11 263 916 0 0 +16 916 1205
 0 ?265 918 262 921 0 0 1 16 918 1225 0 ?915 922 916 923 0 0 1 16 262 1241 0 ?22
9 916 924 925 0 0 1 30 921 1301 0 916 920 923 0 +-.04101219330881985 .0203553390
593273 .055 0 0 -1 30 920 1302 0 35 926 921 0 +-.03535533905932745 .026012193308
8197 .045 -.707106781186546 -.707106781186549 0 30 923 1300 0 918 921 927 0 +-.0
3535533905932745 .0260121933088197 .055 0 0 -1 30 927 1299 0 922 923 276 0 +-119
3260708375114e-32 -.00934314575050762 .055 0 0 -1 16 922 1221 0 ?928 273 918 927
 0 0 1 30 276 1298 0 273 927 274 0 +.0353553390593273 .02601219330881985 .055 0
 0 -1 16 273 1217 0 ?929 253 922 276 0 0 1 17 929 0 627 930 931 37 932 273 0 0 +
15 627 1271 0 930 622 0 17 930 0 627 933 929 33 41 934 0 928 +17 931 0 627 929 9
33 236 235 935 0 0 -17 932 0 623 254 936 236 929 273 0 931 -15 623 1267 0 936 61
9 0 17 254 0 623 252 932 239 238 256 0 0 -17 936 0 623 932 252 37 226 937 0 929
 +17 252 0 623 936 254 224 245 253 0 0 +17 226 0 27 29 41 224 936 937 0 248 -16
 937 1210 0 ?936 934 938 939 0 0 1 16 934 1214 0 ?930 919 937 940 0 0 1 16 938 1
206 0 ?248 937 31 941 0 0 1 30 939 1305 0 937 941 940 0 +.0410121933088197 .0203
5533905932745 .045 -.707106781186549 .707106781186547 0 30 941 1306 0 938 942 93
9 0 +1257674520083184e-32 -.02065685424949235 .045 .707106781186546 .70710678118
6549 0 30 940 1304 0 934 939 926 0 +.0353553390593273 .02601219330881985 .045 -.
707106781186546 -.707106781186549 0 30 926 1303 0 919 940 920 0 +-11932607083751
14e-32 -.00934314575050762 .045 -.707106781186549 .707106781186546 0 16 919 1218
 0 ?36 35 934 926 0 0 1 17 36 0 631 917 928 26 34 919 0 915 +15 631 1275 0 36 62
6 0 17 917 0 631 943 36 230 915 918 0 261 -17 928 0 631 36 943 33 933 922 0 0 +1
7 34 0 27 41 28 33 36 919 0 930 -15 27 1197 0 25 611 944 17 41 0 27 226 34 37 93
0 934 0 936 -15 944 1049 0 279 611 0 17 279 0 944 221 194 191 945 277 0 946 +17
 221 0 944 218 279 219 223 280 0 947 +17 194 0 944 279 197 187 948 299 0 949 +17
 945 0 572 331 946 187 279 277 0 0 -17 946 0 572 945 270 191 361 359 0 0 -15 572
 1006 0 270 568 0 17 270 0 572 946 331 44 190 268 0 0 +17 361 0 576 303 223 44 9
46 359 0 270 +15 576 1010 0 303 571 0 17 303 0 576 947 361 47 46 271 0 358 +17 2
23 0 576 361 947 191 221 280 0 279 -17 947 0 576 223 303 219 358 356 0 950 -17 3
58 0 580 306 950 47 947 356 0 0 +17 950 0 580 358 951 219 218 283 0 0 -15 580 10
14 0 306 575 0 17 951 0 580 950 306 216 355 353 0 952 -17 218 0 944 215 221 216
 950 283 0 951 +17 215 0 944 212 218 213 952 285 0 953 +17 212 0 944 209 215 210
 954 287 0 955 +17 952 0 584 355 953 216 215 285 0 0 -17 953 0 584 952 309 213 3
52 350 0 954 -15 584 1018 0 309 579 0 17 309 0 584 953 355 53 52 307 0 352 +17 3
52 0 588 312 954 53 953 350 0 0 +17 954 0 588 352 955 213 212 287 0 0 -15 588 10
22 0 312 583 0 17 955 0 588 954 312 210 349 347 0 956 -17 312 0 588 955 352 56 5
5 310 0 349 +17 349 0 592 315 956 56 955 347 0 0 +17 956 0 592 349 957 210 209 2
89 0 0 -15 592 1026 0 315 587 0 17 957 0 592 956 315 207 346 344 0 958 -17 209 0
 944 206 212 207 956 289 0 957 +17 206 0 944 203 209 204 958 291 0 959 +17 203 0
 944 200 206 201 960 293 0 961 +17 958 0 596 346 959 207 206 291 0 0 -17 959 0 5
96 958 318 204 343 341 0 960 -15 596 1030 0 318 591 0 17 318 0 596 959 346 62 61
 316 0 343 +17 343 0 600 321 960 62 959 341 0 0 +17 960 0 600 343 961 204 203 29
3 0 0 -15 600 1034 0 321 595 0 17 961 0 600 960 321 201 340 338 0 962 -17 321 0
 600 961 343 65 64 319 0 340 +17 340 0 604 324 962 65 961 338 0 0 +17 962 0 604
 340 963 201 200 295 0 0 -15 604 1038 0 324 599 0 17 963 0 604 962 324 198 337 3
35 0 964 -17 200 0 944 197 203 198 962 295 0 963 +17 197 0 944 194 200 195 964 2
97 0 965 +17 964 0 608 337 965 198 197 297 0 0 -17 965 0 608 964 327 195 334 332
 0 948 -15 608 1042 0 327 603 0 17 327 0 608 965 337 71 70 325 0 334 +17 334 0 6
12 329 948 71 965 332 0 0 +17 948 0 612 334 949 195 194 299 0 0 -15 612 1046 0 3
29 607 0 17 949 0 612 948 329 187 331 300 0 945 -17 329 0 612 949 334 188 73 281
 0 331 +17 331 0 572 270 945 188 949 300 0 0 +17 73 0 514 70 190 71 329 281 0 32
7 -15 514 898 0 190 16 0 17 70 0 514 67 73 68 327 325 0 324 -17 190 0 514 73 46
 188 270 268 0 329 -17 46 0 514 190 49 44 303 271 0 361 -17 49 0 514 46 52 47 30
6 304 0 303 -17 52 0 514 49 55 50 309 307 0 306 -17 306 0 580 951 358 50 49 304
 0 355 +17 355 0 584 309 952 50 951 353 0 0 +17 55 0 514 52 58 53 312 310 0 309
 -17 58 0 514 55 61 56 315 313 0 312 -17 61 0 514 58 64 59 318 316 0 315 -17 315
 0 592 957 349 59 58 313 0 346 +17 346 0 596 318 958 59 957 344 0 0 +17 64 0 514
 61 67 62 321 319 0 318 -17 67 0 514 64 70 65 324 322 0 321 -17 324 0 604 963 34
0 68 67 322 0 337 +17 337 0 608 327 964 68 963 335 0 0 +17 943 0 631 928 917 233
 232 924 0 0 -17 933 0 627 931 930 233 928 922 0 943 -17 232 0 255 229 235 230 9
43 924 0 917 +16 924 1238 0 ?232 262 935 966 0 0 1 16 935 1235 0 ?235 924 256 96
7 0 0 1 30 966 1309 0 924 967 925 0 +-1193260708375114e-32 -.00934314575050762 .
055 -.707106781186549 .707106781186546 0 30 967 1310 0 935 968 966 0 +.035355339
0593273 .02601219330881985 .055 -.707106781186546 -.707106781186549 0 30 925 130
8 0 262 966 942 0 +-.03535533905932745 .0260121933088197 .055 -.707106781186546
 -.707106781186549 0 30 942 1307 0 31 925 941 0 +-.04101219330881985 .0203553390
593273 .045 .707106781186549 -.707106781186546 0 16 31 1202 0 ?30 938 0 942 0 0
 1 30 968 1311 0 256 258 967 0 +.0410121933088197 .02035533905932745 .055 -.7071
06781186549 .707106781186547 0 16 256 1232 0 ?238 935 246 968 0 0 1 30 258 1312
 0 246 266 968 0 +1257674520083184e-32 -.02065685424949235 .055 .707106781186546
 .707106781186549 0 30 266 1313 0 257 0 258 0 +-.04101219330881985 .020355339059
3273 .055 .707106781186549 -.707106781186546 0 17 238 0 255 235 241 236 254 256
 0 932 +17 235 0 255 232 238 233 931 935 0 933 +17 261 0 634 915 263 230 229 262
 0 0 -17 248 0 243 245 244 224 29 938 0 252 +17 29 0 27 25 226 42 248 938 0 244
 -82 1 563 -544341838 82 1 555 -1889468241 19 17 184 0 1 0 9 5 0 S0 74 4 CI16 in
dex_map_offset0 0 1 dCCZ20 15 10 0 0 755 750 969 970 971 972 973 13 642 2 0 0 0
 0 0 0 0 0 0 0 81 2 969 1166 974 1 0 970 0 0 0 0 81 2 970 1327 975 1 969 971 0 0
 0 976 81 2 971 1343 977 1 970 972 0 0 0 978 81 2 972 1344 979 1 971 973 0 0 980
 0 81 1 973 1353 981 1 972 13 0 0 982 81 2 13 1396 983 1 973 2 0 0 984 0 80 2 98
3 985 986 8004 0 0 0 0 3 5 0 0 0 FFTFFFFFFFFFFFFF2 3 83 1 984 1e3 79 16 986 SDL/
TYSA_DENSITY80 1 981 987 988 9000 1 1 1 1 1 1 1 1 0 FFTFFFFFFFFFFFFF1 82 1 982 1
0626 79 10 988 BODY_MATCH80 2 979 989 990 9000 0 0 0 0 3 5 0 0 0 FFTFTTTFFTFFFFF
F10 10 98 255 6 980 20984 21488 45 25289 20280 51 79 23 990 SWIMPLICITBODYNAME_I
D_U80 2 977 991 992 9000 0 0 0 0 3 5 0 0 0 FFTFFFFFFFFFFFFF9 1 82 1 978 142 79 3
0 992 LAST_BODY_MODIFYING_FEATURE_ID80 2 975 993 994 9000 0 0 0 0 3 5 0 0 0 FFTF
FFFFFFFFFFFF9 1 82 1 976 148 79 19 994 ENT_TIME_STAMP_200180 2 974 995 996 9000
 0 0 0 0 3 5 0 0 0 FFTFFFFFFFFFFFFF9 1 79 16 996 BODY_RECIPE_200180 2 12 997 998
 9000 0 0 0 0 3 5 0 0 0 FFTFFFFFFFFFFFFF9 1 82 1 14 109 79 12 998 ATOM_ID_20011
 0 
