**ABCDEFGHIJKLMNOPQRSTUVWXYZabcdefghijklmnopqrstuvwxyz**************************
**PARASOLID !"#$%&'()*+,-./:;<=>?@[\]^_`{|}~0123456789**************************
**PART1;
MC=AMD64;
MC_MODEL=Intel64 Family 6 Model 154 Stepping 3, GenuineIntel;
MC_ID=unknown;
OS=Windows_NT;
OS_RELEASE=unknown;
FRU=Parasolid Version 35.1, build 210,  4-20-2023;
APPL=SOLIDWORKS 2024-2023282;
SITE=;
USER=unknown;
FORMAT=text;
GUISE=transmit;
KEY=Áã;
FILE=Áã¼þ1.x;
DATE=Sat May 25 21:01:22 2024;
**PART2;
SCH=SCH_3501210_35102;
USFLD_SIZE=0;
**PART3;
**END_OF_HEADER*****************************************************************
T51 : TRANSMIT FILE created by modeller version 350121023 SCH_3501210_35102_1300
6231 0 12 36 CCCI7 lattice222 0 CCCI4 mesh1006 0 I8 polyline1008 0 CCCCCCCDI5 ow
ner1040 0 CCCI16 boundary_lattice222 0 CCCI13 boundary_mesh1006 0 I17 boundary_p
olyline1008 0 CCCA16 index_map_offset0 0 1 dA9 index_map82 0 A17 node_id_index_m
ap82 0 A20 schema_embedding_map82 0 A5 child12 0 A14 lowest_node_id0 0 1 dA16 me
sh_offset_data206 0 Z1 512 2 3 0 0 0 0 0 0 0 1e3 1e-8 0 4 0 1 0 1 1 5 0 6 7 8 0
 0 9 10 11 0 0 0 0 0 0 0 81 255 2 2 484 12 1 13 0 0 0 0 14 70 11 CI9 list_type0
 0 1 uI10 notransmit0 0 1 lCCCDCCDI12 finger_index0 0 1 dI12 finger_block1012 0
 CZ3 0 4 T1 0 0 10 20 1 15 15 13 255 5 267 0 1 0 16 0 0 17 0 50 255 6 254 0 16 1
8 0 0 +.02 .02 .05 -1 0 0 0 0 1 30 255 7 266 0 10 19 0 0 +.02 .02 .05 0 0 -1 29
 255 8 195 0 20 21 0 .02 .012 -.05 19 9 CCCCCCI5 frame230 0 CA5 owner12 0 Z9 89
 0 1 17 0 22 0 V0 16 255 10 218 0 ?23 0 24 7 0 0 1 18 255 11 86 0 25 0 26 27 ?1
 17 255 25 0 28 29 30 11 31 32 0 33 +18 26 83 0 30 11 34 35 ?1 29 27 88 0 11 35
 36 .02 .012 .05 29 35 85 0 26 37 27 .035 .012 .05 29 36 206 0 38 27 39 .02 .02
 -.05 18 38 181 0 40 41 0 36 ?1 29 39 205 0 41 36 42 -.02 .02 -.05 18 41 180 0 4
3 44 38 39 ?1 29 42 204 0 44 39 45 -.02 .012 -.05 18 44 179 0 46 47 41 42 ?1 29
 45 203 0 47 42 48 -.035 .012 -.05 18 47 178 0 49 50 44 45 ?1 29 48 202 0 50 45
 51 -.035 .02 -.05 18 50 177 0 52 53 47 48 ?1 29 51 201 0 53 48 54 -.05 .02 -.05
 18 53 176 0 55 56 50 51 ?1 29 54 200 0 56 51 57 -.05 0 -.05 18 56 175 0 58 59 5
3 54 ?1 29 57 199 0 59 54 60 .05 0 -.05 18 59 174 0 61 62 56 57 ?1 29 60 198 0 6
2 57 63 .05 .02 -.05 18 62 173 0 64 65 59 60 ?1 29 63 197 0 65 60 21 .035 .02 -.
05 18 65 172 0 66 67 62 63 ?1 29 21 196 0 67 63 8 .035 .012 -.05 18 67 171 0 68
 20 65 21 ?1 17 68 0 69 70 71 67 72 73 0 74 +18 20 170 0 75 76 67 8 ?1 17 75 0 7
7 33 74 20 78 79 0 80 +18 76 53 0 81 82 20 83 ?1 17 81 0 84 23 85 76 86 87 0 29
 -18 82 56 0 86 88 76 89 ?1 29 83 55 0 76 0 89 .02 .02 .05 29 89 58 0 82 83 90 -
.02 .02 .05 29 90 61 0 88 89 91 -.02 .012 .05 18 88 59 0 92 93 82 90 ?1 29 91 64
 0 93 90 94 -.035 .012 .05 18 93 62 0 95 96 88 91 ?1 29 94 67 0 96 91 97 -.035 .
02 .05 18 96 65 0 98 99 93 94 ?1 29 97 70 0 99 94 100 -.05 .02 .05 18 99 68 0 10
1 102 96 97 ?1 29 100 73 0 102 97 103 -.05 0 .05 18 102 71 0 104 105 99 100 ?1 2
9 103 76 0 105 100 106 .05 0 .05 18 105 74 0 107 108 102 103 ?1 29 106 79 0 108
 103 37 .05 .02 .05 18 108 77 0 109 34 105 106 ?1 29 37 82 0 34 106 35 .035 .02
 .05 18 34 80 0 110 26 108 37 ?1 17 110 0 28 30 109 34 111 112 0 113 +15 255 28
 4 0 29 114 0 17 30 0 28 25 110 26 115 116 0 70 +17 109 0 28 110 107 108 117 118
 0 119 +17 111 0 120 121 113 108 110 112 0 0 -16 112 41 0 ?110 116 118 122 0 0 1
 17 113 0 120 111 66 34 71 123 0 115 -15 120 223 0 66 124 0 17 66 0 120 113 121
 65 125 126 0 71 +17 71 0 69 68 115 65 113 123 0 72 +16 123 209 0 ?71 127 128 12
9 0 0 1 17 115 0 69 71 70 34 30 116 0 0 -15 69 221 0 68 130 0 17 70 0 69 115 68
 26 74 128 0 31 -16 116 45 0 ?30 32 112 131 0 0 1 16 32 49 0 ?25 132 116 133 0 0
 1 30 131 47 0 116 122 133 0 +.035 .012 .05 0 -1 0 30 122 43 0 112 134 131 0 +.0
35 .02 .05 -1 0 0 30 133 51 0 32 131 135 0 +.02 .012 .05 -1 0 0 30 135 194 0 136
 133 137 0 +.02 .02 -.05 0 1 0 16 136 166 0 ?138 139 0 135 0 0 1 30 137 193 0 13
9 135 140 0 +-.02 .02 -.05 -1 0 0 16 139 162 0 ?43 141 136 137 0 0 1 30 140 192
 0 141 137 142 0 +-.02 .02 -.05 0 -1 0 16 141 158 0 ?46 143 139 140 0 0 1 30 142
 191 0 143 140 144 0 +-.02 .012 -.05 -1 0 0 16 143 154 0 ?49 145 141 142 0 0 1 3
0 144 190 0 145 142 146 0 +-.035 .012 -.05 0 1 0 16 145 150 0 ?52 147 143 144 0
 0 1 30 146 189 0 147 144 148 0 +-.035 .02 -.05 -1 0 0 16 147 146 0 ?55 149 145
 146 0 0 1 30 148 188 0 149 146 150 0 +-.05 .02 -.05 -3469446951953615e-31 -1 0
 16 149 142 0 ?58 151 147 148 0 0 1 30 150 187 0 151 148 152 0 +.05 0 -.05 1 0 0
 16 151 138 0 ?61 153 149 150 0 0 1 30 152 186 0 153 150 154 0 +.05 .02 -.05 -34
69446951953615e-31 1 0 16 153 134 0 ?64 126 151 152 0 0 1 30 154 185 0 126 152 1
55 0 +.035 .02 -.05 -1 0 0 16 126 130 0 ?66 73 153 154 0 0 1 30 155 184 0 73 154
 156 0 +.035 .012 -.05 0 -1 0 16 73 126 0 ?68 79 126 155 0 0 1 30 156 183 0 79 1
55 157 0 +.02 .012 -.05 -1 0 0 16 79 122 0 ?75 158 73 156 0 0 1 30 157 255 0 132
 156 159 0 +.02 .012 .05 0 0 -1 16 132 207 0 ?80 128 32 157 0 0 1 30 159 256 0 1
28 157 129 0 +.035 .012 .05 0 0 -1 16 128 208 0 ?74 123 132 159 0 0 1 30 129 257
 0 123 159 160 0 +.035 .02 .05 0 0 -1 30 160 258 0 127 129 161 0 +.05 .02 .05 0
 0 -1 16 127 210 0 ?121 162 123 160 0 0 1 30 161 259 0 162 160 163 0 +.05 0 .05
 0 0 -1 16 162 211 0 ?164 165 127 161 0 0 1 30 163 260 0 165 161 166 0 +-.05 0 .
05 0 0 -1 16 165 212 0 ?167 168 162 163 0 0 1 30 166 261 0 168 163 169 0 +-.05 .
02 .05 0 0 -1 16 168 213 0 ?170 171 165 166 0 0 1 30 169 262 0 171 166 172 0 +-.
035 .02 .05 0 0 -1 16 171 214 0 ?173 174 168 169 0 0 1 30 172 263 0 174 169 175
 0 +-.035 .012 .05 0 0 -1 16 174 215 0 ?176 177 171 172 0 0 1 30 175 264 0 177 1
72 19 0 +-.02 .012 .05 0 0 -1 16 177 216 0 ?178 24 174 175 0 0 1 30 19 265 0 24
 175 7 0 +-.02 .02 .05 0 0 -1 16 24 217 0 ?179 10 177 19 0 0 1 17 179 0 180 46 1
81 41 85 24 0 182 +15 180 237 0 46 183 0 17 46 0 180 184 179 44 182 141 0 178 +1
7 181 0 180 179 184 82 92 185 0 0 -17 85 0 84 81 43 82 179 24 0 181 -17 182 0 18
6 40 187 41 46 141 0 0 -15 186 121 0 188 189 0 17 40 0 186 188 182 38 43 139 0 2
3 -17 187 0 186 182 190 44 49 143 0 0 -17 190 0 186 187 191 47 52 145 0 0 -17 49
 0 192 193 178 47 187 143 0 176 +15 192 235 0 49 194 0 17 193 0 192 195 49 93 17
6 174 0 196 -17 178 0 192 49 195 44 184 177 0 187 +17 176 0 197 52 196 47 193 17
4 0 190 +15 197 233 0 52 198 0 17 52 0 197 199 176 50 190 145 0 173 +17 196 0 19
7 176 199 93 98 200 0 0 -17 199 0 197 196 52 96 173 171 0 201 -17 98 0 28 101 95
 96 196 200 0 199 +16 200 21 0 ?98 202 203 204 0 0 1 16 202 25 0 ?101 205 200 20
6 0 0 1 16 203 17 0 ?95 200 185 207 0 0 1 30 204 23 0 200 207 206 0 +-.035 .012
 .05 0 1 0 30 207 19 0 203 208 204 0 +-.02 .012 .05 -1 0 0 30 206 27 0 202 204 2
09 0 +-.035 .02 .05 -1 0 0 30 209 31 0 205 206 210 0 +-.05 .02 .05 -346944695195
3615e-31 -1 0 16 205 29 0 ?104 211 202 209 0 0 1 30 210 35 0 211 209 134 0 +.05
 0 .05 1 0 0 16 211 33 0 ?107 118 205 210 0 0 1 30 134 39 0 118 210 122 0 +.05 .
02 .05 -3469446951953615e-31 1 0 16 118 37 0 ?109 112 211 134 0 0 1 17 107 0 28
 109 104 105 212 211 0 213 +17 104 0 28 107 101 102 214 205 0 215 +17 212 0 216
 167 213 102 107 211 0 0 -17 213 0 216 212 61 105 164 162 0 117 -15 216 227 0 61
 217 0 17 61 0 216 213 167 59 218 151 0 164 +17 164 0 219 64 117 59 213 162 0 22
0 +17 117 0 219 164 119 105 109 118 0 0 -15 219 225 0 64 221 0 17 119 0 219 117
 64 108 121 127 0 111 -17 64 0 219 119 164 62 220 153 0 121 +17 121 0 120 66 111
 62 119 127 0 125 +17 125 0 186 220 72 62 66 126 0 0 -17 220 0 186 218 125 59 64
 153 0 0 -17 72 0 186 125 78 65 68 73 0 0 -17 78 0 186 72 188 67 75 79 0 0 -17 1
88 0 186 78 40 20 138 136 0 0 -17 138 0 222 223 80 38 188 136 0 0 +15 222 241 0
 138 16 0 17 223 0 222 224 138 76 23 10 0 0 -17 80 0 222 138 224 20 33 132 0 188
 +17 224 0 222 80 223 11 29 158 0 0 -17 33 0 77 31 75 11 80 132 0 224 -15 77 219
 0 75 225 0 17 31 0 77 74 33 26 25 32 0 0 -17 74 0 77 75 31 67 70 128 0 78 +14 2
55 225 220 226 ?114 130 77 5 227 -0 0 114 130 22 81 1 226 486 228 225 229 0 0 23
0 231 14 114 1 230 ?189 225 28 5 232 +0 0 189 225 22 14 130 222 233 ?225 124 69
 5 234 -0 0 225 124 22 50 227 243 0 225 235 234 0 +.02 .012 .05 0 -1 0 0 0 -1 13
 22 90 0 0 0 0 0 0 9 16 14 16 242 236 ?237 0 222 5 6 -0 0 237 0 22 81 1 236 492
 228 16 238 0 233 239 240 14 237 240 239 ?183 16 84 5 18 -0 0 183 16 22 81 1 239
 494 228 237 241 0 236 242 243 14 183 238 242 ?194 237 180 5 244 -0 0 194 237 22
 15 84 239 0 43 237 0 50 18 253 0 237 244 6 0 +-.02 .02 .05 0 -1 0 0 0 -1 50 244
 252 0 183 245 18 0 +-.02 .02 .05 1 0 0 0 0 -1 50 245 251 0 194 246 244 0 +-.02
 .012 .05 0 -1 0 0 0 -1 14 194 236 247 ?198 183 192 5 245 -0 0 198 183 22 50 246
 250 0 198 248 245 0 +-.035 .012 .05 -1 0 0 0 0 1 14 198 234 249 ?250 194 197 5
 246 -0 0 250 194 22 50 248 249 0 250 251 246 0 +-.035 .02 .05 0 -1 0 0 0 -1 14
 250 232 252 ?253 198 254 5 248 -0 0 253 198 22 50 251 248 0 253 255 248 0 +-.05
 .02 .05 1 -3469446951953615e-31 0 3469446951953615e-31 1 0 14 253 230 256 ?217
 250 257 5 251 -0 0 217 250 22 50 255 247 0 217 258 251 0 +.05 0 .05 0 1 0 0 0 1
 14 217 228 259 ?221 253 216 5 255 -0 0 221 253 22 50 258 246 0 221 260 255 0 +.
05 .02 .05 -1 -3469446951953615e-31 0 3469446951953615e-31 -1 0 14 221 226 261 ?
124 217 219 5 258 -0 0 124 217 22 50 260 245 0 124 234 258 0 +.035 .02 .05 0 -1
 0 0 0 -1 14 124 224 262 ?130 221 120 5 260 -0 0 130 221 22 50 234 244 0 130 227
 260 0 +.035 .012 .05 1 0 0 0 0 -1 81 1 262 510 228 124 263 0 261 264 265 80 7 C
CCCCDI12 legal_owners0 16 1 lCZ1 228 266 267 9000 1 1 1 1 1 1 1 1 0 FFFFTFTFFFFF
FFFF1 81 3 263 509 268 124 269 262 270 271 272 0 0 81 1 261 508 228 221 270 0 25
9 262 273 81 1 264 512 228 189 271 0 262 0 274 82 255 1 265 1718354063 14 189 12
0 264 ?0 114 186 5 235 -0 0 0 114 22 81 3 271 511 268 189 275 264 263 0 276 0 0
 82 1 274 1715339407 80 3 268 277 278 9000 0 0 0 0 3 5 0 0 0 FFFFTFFFFFFFFFFF1 1
 1 81 1 275 440 279 189 0 271 280 0 281 82 6 276 0 1837650879 31108771 0 0 0 80
 1 279 0 282 8001 0 0 0 0 3 5 0 0 0 FFFFTFTFFFFFFFFF2 81 1 280 439 279 114 0 283
 284 275 285 83 255 3 281 1 1 1 81 3 283 487 268 114 280 230 229 286 287 0 0 81
 1 284 438 279 225 0 229 288 280 289 83 3 285 1 1 1 81 3 229 485 268 225 284 226
 0 283 290 0 0 81 1 288 437 279 130 0 286 269 284 291 83 3 289 1 1 1 81 3 286 48
9 268 130 288 233 283 238 292 0 0 81 1 269 436 279 124 0 263 293 288 294 83 3 29
1 1 1 1 81 1 293 435 279 221 0 270 295 269 296 83 3 294 1 1 1 81 3 270 507 268 2
21 293 261 297 263 298 0 0 81 1 295 434 279 217 0 297 299 293 300 83 3 296 1 1 1
 81 3 297 505 268 217 295 259 301 270 302 0 0 81 1 299 433 279 253 0 301 303 295
 304 83 3 300 1 1 1 81 3 301 503 268 253 299 256 305 297 306 0 0 81 1 303 432 27
9 250 0 305 307 299 308 83 3 304 1 1 1 81 3 305 501 268 250 303 252 309 301 310
 0 0 81 1 307 431 279 198 0 309 311 303 312 83 3 308 1 1 1 81 3 309 499 268 198
 307 249 313 305 314 0 0 81 1 311 430 279 194 0 313 315 307 316 83 3 312 1 1 1 8
1 3 313 497 268 194 311 247 317 309 318 0 0 81 1 315 429 279 183 0 317 319 311 3
20 83 3 316 1 1 1 81 3 317 495 268 183 315 242 241 313 321 0 0 81 1 319 428 279
 237 0 241 322 315 323 83 3 320 1 1 1 81 3 241 493 268 237 319 239 238 317 324 0
 0 81 1 322 427 279 16 0 238 0 319 325 83 3 323 1 1 1 81 3 238 491 268 16 322 23
6 286 241 326 0 0 83 3 325 1 1 1 82 6 326 0 1837650879 31108771 0 0 0 82 6 324 0
 1837650879 31108771 0 0 0 81 1 242 496 228 183 317 0 239 247 327 82 6 321 0 183
7650879 31108771 0 0 0 81 1 247 498 228 194 313 0 242 249 328 82 1 327 172018907
1 81 1 249 500 228 198 309 0 247 252 329 82 1 328 1719926927 81 1 252 502 228 25
0 305 0 249 256 330 82 1 329 1719664783 81 1 256 504 228 253 301 0 252 259 331 8
2 1 330 1719402639 81 1 259 506 228 217 297 0 256 261 332 82 1 331 1719140495 82
 1 332 1718878351 82 6 318 0 1837650879 31108771 0 0 0 82 6 314 0 1837650879 311
08771 0 0 0 82 6 310 0 1837650879 31108771 0 0 0 82 6 306 0 1837650879 31108771
 0 0 0 82 6 302 0 1837650879 31108771 0 0 0 82 6 298 0 1837650879 31108771 0 0 0
 81 1 233 490 228 130 286 0 230 236 333 82 6 292 0 1837650879 31108771 0 0 0 81
 1 230 488 228 114 283 0 226 233 334 82 1 333 1718091919 82 1 334 1700266127 82
 6 290 0 1837650879 31108771 0 0 0 82 6 287 0 1837650879 31108771 0 0 0 79 255 1
5 282 SDL/TYSA_COLOUR79 18 278 DOWNSTREAM_FACE_ID50 235 182 0 189 232 227 0 +0 0
 -.05 0 0 1 1 0 0 50 232 3 0 114 0 235 0 +0 0 .05 0 0 1 1 0 0 82 1 273 171861620
7 82 6 272 0 1837650879 31108771 0 0 0 79 14 267 SWEntUnchanged15 257 229 0 58 2
53 0 17 58 0 257 215 170 56 335 149 0 167 +17 215 0 257 214 58 102 167 165 0 212
 -17 170 0 257 58 214 53 336 168 0 335 +17 335 0 186 191 218 53 58 149 0 0 -17 1
67 0 216 61 212 56 215 165 0 218 +17 218 0 186 335 220 56 61 151 0 0 -17 191 0 1
86 190 335 50 55 147 0 0 -17 55 0 254 336 173 53 191 147 0 170 +15 254 231 0 55
 250 0 17 336 0 254 201 55 99 170 168 0 214 -17 173 0 254 55 201 50 199 171 0 19
1 +17 201 0 254 173 336 96 101 202 0 0 -17 101 0 28 104 98 99 201 202 0 336 +17
 214 0 257 170 215 99 104 205 0 0 -17 43 0 84 85 23 41 40 139 0 179 +17 23 0 84
 43 81 38 223 10 0 138 +82 1 243 1720451215 82 1 240 1720713359 82 1 231 1717829
775 17 29 0 28 86 25 76 224 158 0 223 +16 158 5 0 ?29 87 79 337 0 0 1 16 87 9 0
 ?86 185 158 338 0 0 1 30 337 7 0 158 0 338 0 +.02 .02 .05 0 1 0 30 338 11 0 87
 337 208 0 +-.02 .02 .05 -1 0 0 30 208 15 0 185 338 207 0 +-.02 .02 .05 0 -1 0 1
6 185 13 0 ?92 203 87 208 0 0 1 17 92 0 28 95 86 88 181 185 0 184 +17 95 0 28 98
 92 93 195 203 0 193 +17 86 0 28 92 29 82 81 87 0 85 +17 184 0 180 181 46 88 178
 177 0 195 -17 195 0 192 178 193 88 95 203 0 0 -19 17 268 0 1 0 9 5 0 S0 74 4 CI
16 index_map_offset0 0 1 dCCZ20 15 10 0 0 271 339 340 341 264 342 343 13 275 2 0
 0 0 0 0 0 0 0 0 0 81 2 339 338 344 1 0 340 0 0 0 345 81 2 340 342 346 1 339 341
 0 0 0 347 81 2 341 343 348 1 340 342 0 0 349 0 81 1 342 358 350 1 341 343 0 0 3
51 81 2 343 359 352 1 342 13 0 0 0 0 81 2 13 375 353 1 343 2 0 0 354 0 80 2 353
 355 356 8004 0 0 0 0 3 5 0 0 0 FFTFFFFFFFFFFFFF2 3 83 1 354 1e3 79 16 356 SDL/T
YSA_DENSITY80 2 352 357 358 9000 0 0 0 0 3 5 0 0 0 FFTFFFFFFFFFFFFF9 1 79 16 358
 BODY_RECIPE_200180 1 350 359 360 9000 1 1 1 1 1 1 1 1 0 FFTFFFFFFFFFFFFF1 82 1
 351 25942 79 10 360 BODY_MATCH80 2 348 361 362 9000 0 0 0 0 3 5 0 0 0 FFTFTTTFF
TFFFFFF10 10 98 255 6 349 20984 21488 45 25289 20280 49 79 23 362 SWIMPLICITBODY
NAME_ID_U80 2 346 363 364 9000 0 0 0 0 3 5 0 0 0 FFTFFFFFFFFFFFFF9 1 82 1 347 96
 79 30 364 LAST_BODY_MODIFYING_FEATURE_ID80 2 344 365 366 9000 0 0 0 0 3 5 0 0 0
 FFTFFFFFFFFFFFFF9 1 82 1 345 116 79 19 366 ENT_TIME_STAMP_200180 2 12 367 368 9
000 0 0 0 0 3 5 0 0 0 FFTFFFFFFFFFFFFF9 1 82 1 14 106 79 12 368 ATOM_ID_20011 0
 
